SplineFontDB: 3.0
FontName: font5122
FullName: font5122
FamilyName: SVGFont 1
Weight: Regular
Version: 1.0
ItalicAngle: 0
UnderlinePosition: 0
UnderlineWidth: 0
Ascent: 819
Descent: 205
InvalidEm: 0
sfntRevision: 0x00010000
woffMajor: 1
woffMinor: 0
LayerCount: 2
Layer: 0 0 "Back" 1
Layer: 1 0 "Fore" 0
XUID: [1021 360 1274862856 13353350]
StyleMap: 0x0040
FSType: 8
OS2Version: 3
OS2_WeightWidthSlopeOnly: 0
OS2_UseTypoMetrics: 0
CreationTime: 1589052807
ModificationTime: 1589059833
PfmFamily: 17
TTFWeight: 400
TTFWidth: 5
LineGap: 92
VLineGap: 0
Panose: 2 0 5 3 0 0 0 0 0 0
OS2TypoAscent: 819
OS2TypoAOffset: 0
OS2TypoDescent: -205
OS2TypoDOffset: 0
OS2TypoLinegap: 92
OS2WinAscent: 1010
OS2WinAOffset: 0
OS2WinDescent: -20
OS2WinDOffset: 0
HheadAscent: 1010
HheadAOffset: 0
HheadDescent: 20
HheadDOffset: 0
OS2SubXSize: 665
OS2SubYSize: 716
OS2SubXOff: 0
OS2SubYOff: 143
OS2SupXSize: 665
OS2SupYSize: 716
OS2SupXOff: 0
OS2SupYOff: 491
OS2StrikeYSize: 51
OS2StrikeYPos: 265
OS2CapHeight: 963
OS2Vendor: 'PfEd'
OS2CodePages: 00000001.00000000
OS2UnicodeRanges: 00000001.00000000.00000000.00000000
DEI: 91125
LangName: 1033 "" "" "" "FontForge 2.0 : font5122 : 9-5-2020" "" "Version 1.0"
Encoding: UnicodeBmp
UnicodeInterp: none
NameList: AGL For New Fonts
DisplaySize: -48
AntiAlias: 1
FitToEm: 0
WinInfo: 48 16 4
BeginPrivate: 7
BlueValues 15 [-20 0 944 985]
BlueScale 5 0.025
BlueShift 1 0
StdHW 4 [16]
StdVW 4 [20]
StemSnapH 24 [9 12 16 20 25 29 35 45]
StemSnapV 16 [13 20 26 33 49]
EndPrivate
BeginChars: 65536 27

StartChar: .notdef
Encoding: 0 -1 0
AltUni2: 000000.ffffffff.0
Width: 555
Flags: MW
HStem: 909.291 19.5811 985.31 19.8428
LayerCount: 2
Fore
SplineSet
52 875.00390625 m 1
 68.431640625 893.8359375 92.0126953125 904.220703125 112.766601562 916.208007812 c 0
 137.247070312 926.416992188 163.822265625 927.571289062 189.809570312 928.872070312 c 0
 222.631835938 930.008789062 255.38671875 927.755859375 288.013671875 924.22265625 c 0
 316.063476562 920.71875 343.58984375 914.010742188 370.7421875 905.979492188 c 0
 396.348632812 897.873046875 422.0390625 890.228515625 448.2890625 884.794921875 c 0
 467.205078125 881.263671875 486.493164062 880 505.6640625 881.553710938 c 0
 518.072265625 882.559570312 523.556640625 883.8046875 535.864257812 885.943359375 c 0
 565.51171875 892.463867188 594.146484375 903.28515625 621.250976562 917.404296875 c 0
 624.734375 919.501953125 635.279296875 925.610351562 631.701171875 923.696289062 c 0
 625.20703125 920.22265625 619.236328125 915.630859375 612.495117188 912.721679688 c 0
 609.901367188 911.602539062 616.98046875 916.272460938 619.065429688 918.243164062 c 0
 624.587890625 923.463867188 626.509765625 926.891601562 628.888671875 934.0546875 c 0
 631.20703125 949.081054688 623.301757812 959.352539062 613.8203125 969.430664062 c 0
 600.66015625 980.711914062 584.586914062 986.569335938 567.581054688 986.365234375 c 0
 562.981445312 986.310546875 558.40625 985.661132812 553.819335938 985.309570312 c 0
 525.526367188 980.373046875 499.522460938 967.27734375 474.448242188 953.1875 c 0
 473.810546875 952.828125 473.393554688 952.135742188 472.798828125 951.703125 c 0
 463.765625 945.125976562 454.649414062 938.676757812 445.575195312 932.1640625 c 0
 406.995117188 901.517578125 372.737304688 864.926757812 346.743164062 821.873046875 c 0
 328.423828125 791.53125 326.700195312 783.650390625 313.211914062 750.639648438 c 0
 309.541015625 737.561523438 305.138671875 724.686523438 302.19921875 711.405273438 c 0
 289.614257812 654.537109375 289.920898438 594.499023438 299.975585938 537.233398438 c 0
 302.581054688 522.397460938 306.55859375 507.864257812 309.850585938 493.1796875 c 0
 314.569335938 478.981445312 318.548828125 464.487304688 324.005859375 450.583984375 c 0
 340.2734375 409.134765625 363.038085938 369.2578125 394.951171875 338.916992188 c 0
 425.619140625 309.7578125 434.6484375 309.143554688 472.217773438 291.034179688 c 0
 488.733398438 287.046875 504.965820312 281.413085938 521.763671875 279.073242188 c 0
 588.15625 269.82421875 656.098632812 281.856445312 720.763671875 296.873046875 c 0
 748.389648438 303.2890625 775.627929688 311.426757812 803.060546875 318.704101562 c 1
 791.204101562 309.159179688 l 1
 730.594726562 292.520507812 691.880859375 279.985351562 630.565429688 270.204101562 c 0
 588.395507812 263.4765625 545.40234375 259.85546875 502.830078125 265.272460938 c 0
 485.638671875 267.459960938 469.002929688 273.090820312 452.088867188 277 c 0
 413.762695312 295.251953125 404.8046875 295.66015625 373.607421875 325.307617188 c 0
 341.44921875 355.868164062 318.514648438 396.118164062 302.123046875 437.869140625 c 0
 296.630859375 451.85546875 292.619140625 466.43359375 287.8671875 480.716796875 c 0
 284.51953125 495.466796875 280.49609375 510.064453125 277.825195312 524.965820312 c 0
 267.55078125 582.287109375 266.651367188 642.59765625 278.7421875 699.705078125 c 0
 281.568359375 713.052734375 285.884765625 726.00390625 289.456054688 739.153320312 c 0
 302.75 772.404296875 304.374023438 780.223632812 322.551757812 810.823242188 c 0
 348.135742188 853.88671875 381.932617188 890.673828125 420.040039062 921.611328125 c 0
 456.423828125 948.268554688 448.40234375 943.470703125 496.916015625 972.116210938 c 0
 517.533203125 984.290039062 539.755859375 995.05078125 562.661132812 1001.54199219 c 0
 568.169921875 1003.10253906 573.83984375 1003.94921875 579.4296875 1005.15234375 c 0
 584.219726562 1005.46972656 589.000976562 1006.11914062 593.80078125 1006.10449219 c 0
 611.6171875 1006.05273438 628.44921875 999.504882812 642.18359375 987.688476562 c 0
 652.522460938 976.767578125 660.932617188 965.51953125 659.454101562 949.244140625 c 0
 658.048828125 943.748046875 658.064453125 941.93359375 654.763671875 937.092773438 c 0
 652.344726562 933.543945312 646.259765625 927.440429688 642.959960938 925.234375 c 0
 619.928710938 909.83203125 614.328125 906.803710938 596.240234375 896.426757812 c 0
 568.953125 882.887695312 540.345703125 872.204101562 510.688476562 866.057617188 c 0
 497.859375 863.934570312 493.088867188 862.834960938 480.168945312 861.919921875 c 0
 460.75 860.545898438 441.259765625 861.971679688 422.124023438 865.624023438 c 0
 395.821289062 871.209960938 370.016601562 878.782226562 344.337890625 886.947265625 c 0
 317.43359375 894.844726562 290.180664062 901.599609375 262.40234375 905.083984375 c 0
 229.875 908.71484375 197.188476562 910.78125 164.46484375 909.291015625 c 0
 138.217773438 907.620117188 111.3984375 905.935546875 86.99609375 894.633789062 c 1
 93.6494140625 898.930664062 100.357421875 903.137695312 106.958007812 907.525390625 c 0
 109.231445312 909.037109375 102.251953125 904.779296875 99.9794921875 903.265625 c 0
 94.0966796875 899.346679688 88.7802734375 894.56640625 83.91796875 889.341796875 c 2
 52 875.00390625 l 1
EndSplineSet
EndChar

StartChar: Capital A
Encoding: 65 65 1
Width: 371
GlyphClass: 2
Flags: MW
HStem: 539.887 16.2207
VStem: 60.3789 33.168 484.252 24.6758
LayerCount: 2
Fore
SplineSet
335.45703125 934.458984375 m 1
 320.802734375 926.673828125 l 2
 308.606445312 922.977539062 297.869140625 916.00390625 287.416015625 910.912109375 c 0
 286.891601562 909.37890625 285.127929688 908.356445312 283.734375 907.259765625 c 0
 281.340820312 904.729492188 278.896484375 902.234375 276.390625 899.7734375 c 0
 274.088867188 897.606445312 271.900390625 895.352539062 269.591796875 893.20703125 c 0
 268.383789062 891.373046875 265.786132812 890.05859375 264.908203125 887.97265625 c 0
 261.76171875 883.923828125 258.696289062 879.821289062 254.765625 876.193359375 c 0
 250.47265625 871.930664062 246.799804688 867.372070312 242.99609375 862.84375 c 0
 238.711914062 858.291992188 235.045898438 853.420898438 231.3671875 848.560546875 c 0
 225.188476562 840.899414062 219.516601562 833.000976562 213.28125 825.3671875 c 0
 206.23828125 816.725585938 199.486328125 807.943359375 193.248046875 798.927734375 c 0
 186.245117188 788.506835938 179.928710938 777.801757812 173.41796875 767.189453125 c 0
 165.671875 753.22265625 157.659179688 739.32421875 151.55859375 724.84375 c 0
 143.989257812 707.514648438 137.578125 689.900390625 131.994140625 672.115234375 c 0
 126.079101562 652.078125 119.983398438 632.07421875 114.37890625 611.982421875 c 0
 108.387695312 591.885742188 101.736328125 571.877929688 97.46484375 551.498046875 c 0
 92.2294921875 527.25390625 87.2734375 502.971679688 82.73828125 478.640625 c 0
 78.404296875 454.977539062 74.345703125 431.286132812 70.904296875 407.53125 c 0
 67.607421875 387.0625 65.0390625 366.536132812 62.63671875 345.9921875 c 0
 60.7548828125 330.456054688 58.9716796875 314.875 59.025390625 299.255859375 c 0
 59.0146484375 291.405273438 58.7294921875 283.4765625 60.37890625 275.703125 c 0
 61.509765625 271.518554688 62.9208984375 267.387695312 63.349609375 263.1015625 c 1
 96.8125 277 l 1
 96.103515625 281.280273438 94.708984375 285.423828125 93.546875 289.6328125 c 0
 91.9794921875 297.12109375 91.9140625 304.748046875 91.6640625 312.31640625 c 0
 91.1865234375 327.7109375 92.7802734375 343.094726562 94.501953125 358.41796875 c 0
 96.6845703125 378.869140625 99.0146484375 399.307617188 102.30078125 419.669921875 c 0
 105.557617188 443.361328125 109.46875 466.989257812 113.744140625 490.580078125 c 0
 116.68359375 506.389648438 119.84375 522.172851562 123.1796875 537.93359375 c 1
 124.959960938 537.440429688 126.733398438 536.934570312 128.51953125 536.451171875 c 0
 151.05859375 530.44921875 174.880859375 527.924804688 198.66796875 525.962890625 c 0
 245.057617188 522.38671875 291.565429688 525.290039062 337.740234375 528.826171875 c 0
 374.885742188 531.900390625 412.01171875 535.169921875 448.8203125 539.88671875 c 1
 479.09765625 556.107421875 l 1
 441.952148438 550.853515625 404.416015625 547.213867188 366.794921875 544.134765625 c 0
 321.37109375 540.647460938 275.607421875 537.754882812 230.005859375 541.697265625 c 0
 207.020507812 543.772460938 184.0625 546.486328125 162.400390625 552.56640625 c 0
 153.767578125 555.03125 145.09375 557.545898438 136.720703125 560.400390625 c 1
 127.048828125 555.806640625 l 2
 127.611328125 558.353515625 128.159179688 560.90234375 128.732421875 563.447265625 c 0
 133.399414062 583.818359375 140.237304688 603.830078125 146.228515625 623.9765625 c 0
 151.728515625 644.071289062 157.7265625 664.076171875 163.76171875 684.076171875 c 0
 169.640625 701.817382812 176.07421875 719.448242188 183.955078125 736.7109375 c 0
 190.170898438 751.203125 198.514648438 765.033203125 206.337890625 779.013671875 c 0
 213.2421875 789.532226562 219.431640625 800.352539062 226.7578125 810.697265625 c 0
 233.090820312 819.639648438 239.875 828.361328125 246.9453125 836.955078125 c 0
 253.051757812 844.744140625 259.059570312 852.56640625 265.341796875 860.26953125 c 0
 269.04296875 865.174804688 272.940429688 870.013671875 277.5234375 874.44921875 c 0
 280.713867188 879.249023438 284.807617188 883.577148438 289.248046875 887.69921875 c 0
 292.888671875 891.646484375 296.447265625 895.708007812 299.384765625 900.009765625 c 0
 300.141601562 901.514648438 302.549804688 902.249023438 303.5703125 903.55078125 c 0
 304.6640625 904.947265625 303.092773438 904.071289062 304.6953125 904.779296875 c 0
 306.35546875 907.282226562 309.142578125 909.157226562 311.087890625 911.51953125 c 0
 312.33203125 912.37890625 313.290039062 913.45703125 314.240234375 914.5390625 c 0
 323.759765625 910.658203125 332.15234375 905.040039062 340.28125 899.6484375 c 0
 361.380859375 883.842773438 380.49609375 866.311523438 397.39453125 847.66015625 c 0
 401.7421875 842.861328125 405.782226562 837.896484375 409.9765625 833.013671875 c 0
 435.259765625 802.17578125 452.512695312 767.986328125 463.57421875 732.453125 c 0
 466.2734375 723.782226562 468.278320312 714.987304688 470.630859375 706.25390625 c 0
 482.651367188 655.017578125 486.361328125 602.823242188 485.5078125 550.798828125 c 0
 485.313476562 539 484.669921875 527.206054688 484.251953125 515.41015625 c 0
 481.236328125 466.073242188 475.606445312 416.844726562 467.20703125 367.890625 c 0
 461.85546875 336.705078125 459.537109375 326.948242188 453.107421875 296.134765625 c 0
 444.034179688 254.497070312 433.182617188 213.115234375 422.517578125 171.71484375 c 1
 449.19140625 181.853515625 l 1
 459.125976562 223.063476562 469.299804688 264.24609375 477.90625 305.642578125 c 0
 492.390625 378.42578125 504.721679688 451.520507812 508.927734375 525.1796875 c 0
 509.438476562 537.036132812 510.163085938 548.888671875 510.4609375 560.75 c 0
 511.775390625 613.147460938 508.762695312 665.721679688 497.287109375 717.42578125 c 0
 495.033203125 726.255859375 493.1015625 735.140625 490.525390625 743.916015625 c 0
 479.959960938 779.896484375 463.45703125 814.65234375 438.451171875 846.06640625 c 0
 434.326171875 851.03125 430.3515625 856.07421875 426.076171875 860.9609375 c 0
 409.499023438 879.907226562 390.858398438 897.825195312 370.517578125 914.359375 c 0
 359.872070312 922.014648438 348.918945312 929.950195312 335.45703125 934.458984375 c 1
307.310546875 916.958984375 m 2
 308.217773438 916.693359375 309.11328125 916.411132812 310 916.111328125 c 1
 277.115234375 900.869140625 284.555664062 904.607421875 294.0703125 909.013671875 c 0
 294.477539062 909.166992188 294.840820312 909.301757812 295.01171875 909.58203125 c 0
 294.983398438 909.620117188 294.955078125 909.659179688 294.927734375 909.697265625 c 0
 294.849609375 909.784179688 294.772460938 909.870117188 294.6953125 909.95703125 c 2
 307.310546875 916.958984375 l 2
EndSplineSet
EndChar

StartChar: Capital B
Encoding: 66 66 2
Width: 349
GlyphClass: 2
Flags: MW
HStem: 229.619 15.3926 308.482 16.0508 954.605 15.709
VStem: 220.533 22.416 447.713 23.5488
LayerCount: 2
Fore
SplineSet
360.15234375 971.06640625 m 0
 356.151367188 971.010742188 352.12890625 970.755859375 348.09765625 970.314453125 c 0
 336.470703125 967.96484375 325.111328125 966.375976562 314.216796875 961.25 c 0
 282.8671875 946.5 253.008789062 928.7890625 227.111328125 905.697265625 c 0
 197.845703125 877.974609375 169.833007812 848.8046875 145.443359375 816.630859375 c 0
 131.248046875 797.63671875 116.864257812 778.005859375 110.4921875 754.80078125 c 0
 108.869140625 745.489257812 108.129882812 739.119140625 116.033203125 732.658203125 c 1
 140.9453125 748.77734375 l 1
 133.575195312 753.142578125 134.805664062 759.9609375 136.1640625 767.3125 c 0
 142.169921875 789.7109375 156.026367188 808.674804688 169.595703125 827.052734375 c 0
 189.380859375 853.18359375 211.287109375 877.770507812 234.748046875 900.662109375 c 0
 239.815429688 905.606445312 245.075195312 910.3515625 250.23828125 915.197265625 c 0
 263.462890625 926.028320312 268.411132812 930.693359375 282.666015625 939.98046875 c 0
 288.08984375 943.513671875 293.484375 947.189453125 299.365234375 949.89453125 c 0
 301.475585938 950.865234375 291.845703125 945.03125 294.15625 945.267578125 c 0
 300.034179688 945.868164062 305.21484375 949.475585938 310.90234375 951.07421875 c 0
 316.311523438 952.594726562 321.889648438 953.427734375 327.3828125 954.60546875 c 0
 348.366210938 957.227539062 369.172851562 954.6171875 388.138671875 944.9375 c 0
 400.452148438 938.65234375 402.28125 936.064453125 412.75390625 927.197265625 c 0
 431.470703125 908.47265625 443.856445312 884.926757812 450.015625 859.24609375 c 0
 451.256835938 854.069335938 451.983398438 848.783203125 452.966796875 843.55078125 c 0
 456.619140625 814.82421875 453.114257812 785.973632812 445.556640625 758.15234375 c 0
 443.8671875 751.932617188 441.801757812 745.821289062 439.923828125 739.65625 c 0
 431.118164062 713.141601562 419.512695312 687.65625 405.64453125 663.41796875 c 0
 396.513671875 647.458984375 393.501953125 643.356445312 383.49609375 628.078125 c 0
 372.4140625 612.892578125 361.491210938 597.112304688 348.7421875 583.107421875 c 0
 346.821289062 582.797851562 344.895507812 582.399414062 342.9609375 581.884765625 c 2
 319.759765625 563.548828125 l 2
 323.694335938 565.091796875 327.640625 566.053710938 331.6015625 566.607421875 c 1
 329.176757812 564.620117188 326.530273438 562.919921875 323.99609375 561.072265625 c 1
 325.919921875 562.212890625 327.599609375 563.1796875 329.236328125 564.12109375 c 2
 314.080078125 552.48828125 l 1
 329.586914062 555.946289062 320.078125 553.356445312 342.79296875 567.173828125 c 0
 349.384765625 566.986328125 356.024414062 566.0234375 362.7265625 564.9140625 c 0
 382.622070312 560.711914062 401.245117188 551.649414062 415.66796875 537.10546875 c 0
 418.645507812 534.103515625 421.208984375 530.71875 423.98046875 527.525390625 c 0
 434.637695312 512.984375 441.11328125 496.143554688 444.48828125 478.505859375 c 0
 446.561523438 467.666992188 446.823242188 460.6875 447.712890625 449.693359375 c 0
 448.416992188 423.744140625 445.650390625 397.5546875 438.693359375 372.5 c 0
 437.1875 367.075195312 435.290039062 361.766601562 433.587890625 356.400390625 c 0
 423.471679688 328.241210938 408.3828125 301.7265625 387.26953125 280.3046875 c 0
 383.037109375 276.010742188 378.340820312 272.200195312 373.876953125 268.1484375 c 0
 366.625 262.850585938 352.352539062 251.564453125 343.587890625 248.580078125 c 0
 341.000976562 247.69921875 352.311523438 254.040039062 349.58203125 254.171875 c 0
 343.818359375 254.451171875 338.641601562 250.447265625 333.033203125 249.08984375 c 0
 318.8515625 245.65625 313.834960938 245.958007812 299.34375 245.01171875 c 0
 271.434570312 244.852539062 244.428710938 252.116210938 218.966796875 263.14453125 c 0
 213.8359375 265.3671875 208.83984375 267.893554688 203.77734375 270.267578125 c 0
 178.90625 282.513671875 155.709960938 297.9296875 130.6953125 309.90234375 c 0
 126.399414062 311.958984375 121.975585938 313.735351562 117.615234375 315.65234375 c 0
 106.916992188 319.875 95.87890625 323.485351562 84.345703125 324.439453125 c 0
 81.4296875 324.680664062 78.494140625 324.500976562 75.568359375 324.533203125 c 2
 53 308.076171875 l 2
 55.9375 308.211914062 58.8740234375 308.575195312 61.8125 308.482421875 c 0
 73.4296875 308.114257812 84.607421875 304.801757812 95.453125 300.875 c 0
 99.8623046875 299.0625 104.344726562 297.41796875 108.681640625 295.4375 c 0
 133.98046875 283.88671875 157.237304688 268.379882812 182.056640625 255.908203125 c 0
 187.139648438 253.485351562 192.153320312 250.912109375 197.3046875 248.638671875 c 0
 222.961914062 237.31640625 250.215820312 229.782226562 278.416015625 229.619140625 c 0
 293.127929688 230.37109375 298.079101562 229.991210938 312.525390625 233.259765625 c 0
 335.538085938 238.465820312 342.775390625 244.505859375 367.634765625 257.8125 c 0
 372.93359375 260.6484375 378.174804688 263.623046875 383.171875 266.962890625 c 0
 388.209960938 270.330078125 392.852539062 274.252929688 397.693359375 277.8984375 c 0
 402.115234375 282.034179688 406.768554688 285.9375 410.9609375 290.306640625 c 0
 431.962890625 312.19140625 446.9453125 339.079101562 457.10546875 367.4921875 c 0
 458.811523438 372.9296875 460.7109375 378.311523438 462.22265625 383.806640625 c 0
 469.205078125 409.182617188 472.081054688 435.66015625 471.26171875 461.93359375 c 0
 470.349609375 472.994140625 470.046875 480.258789062 467.970703125 491.17578125 c 0
 464.536132812 509.235351562 457.9140625 526.510742188 447.083984375 541.447265625 c 0
 444.262695312 544.75 441.65234375 548.244140625 438.62109375 551.35546875 c 0
 424.1015625 566.255859375 405.345703125 575.838867188 385.255859375 580.6640625 c 0
 378.118164062 582.109375 371.06640625 583.368164062 364.005859375 583.78125 c 1
 380.239257812 600.111328125 393.263671875 619.52734375 406.53515625 638.19140625 c 0
 410.244140625 643.947265625 414.06640625 649.631835938 417.662109375 655.458984375 c 0
 436.139648438 685.405273438 451.770507812 717.096679688 462.90625 750.521484375 c 0
 464.817382812 756.76171875 466.920898438 762.9453125 468.640625 769.240234375 c 0
 476.350585938 797.458007812 479.9140625 826.752929688 476.095703125 855.888671875 c 0
 475.069335938 861.1953125 474.299804688 866.55859375 473.017578125 871.80859375 c 0
 466.637695312 897.934570312 454.106445312 921.989257812 435.126953125 941.150390625 c 0
 424.559570312 950.26171875 422.544921875 953.052734375 410.107421875 959.583984375 c 0
 394.44140625 967.810546875 377.491210938 971.306640625 360.15234375 971.06640625 c 0
219.146484375 763.71484375 m 1
 193.181640625 749.4140625 l 1
 198.376953125 737.939453125 201.994140625 725.798828125 205.53515625 713.732421875 c 0
 211.729492188 691.727539062 215.61328125 669.176757812 219.34375 646.65234375 c 0
 224.666992188 612.657226562 226.349609375 578.286132812 227.572265625 543.947265625 c 0
 229.025390625 501.021484375 225.685546875 458.181640625 220.533203125 415.60546875 c 0
 217.016601562 389.3515625 211.419921875 363.458984375 205.537109375 337.65625 c 1
 228.62890625 348.79296875 l 1
 234.205078125 374.60546875 239.51953125 400.494140625 242.94921875 426.697265625 c 0
 247.897460938 469.436523438 251.123046875 512.393554688 250 555.458984375 c 0
 249.166992188 590.127929688 247.999023438 624.849609375 243.091796875 659.23046875 c 0
 239.595703125 681.997070312 235.91796875 704.78515625 230.03515625 727.08203125 c 0
 226.659179688 739.3671875 223.087890625 751.598632812 219.146484375 763.71484375 c 1
EndSplineSet
EndChar

StartChar: Capital C
Encoding: 67 67 3
Width: 557
GlyphClass: 2
Flags: MW
HStem: 909.291 19.5811 985.31 19.8428
LayerCount: 2
Fore
SplineSet
53 875.00390625 m 1
 69.431640625 893.8359375 93.0126953125 904.220703125 113.766601562 916.208007812 c 0
 138.247070312 926.416992188 164.822265625 927.571289062 190.809570312 928.872070312 c 0
 223.631835938 930.008789062 256.38671875 927.755859375 289.013671875 924.22265625 c 0
 317.063476562 920.71875 344.58984375 914.010742188 371.7421875 905.979492188 c 0
 397.348632812 897.873046875 423.0390625 890.228515625 449.2890625 884.794921875 c 0
 468.205078125 881.263671875 487.493164062 880 506.6640625 881.553710938 c 0
 519.072265625 882.559570312 524.556640625 883.8046875 536.864257812 885.943359375 c 0
 566.51171875 892.463867188 595.146484375 903.28515625 622.250976562 917.404296875 c 0
 625.734375 919.501953125 636.279296875 925.610351562 632.701171875 923.696289062 c 0
 626.20703125 920.22265625 620.236328125 915.630859375 613.495117188 912.721679688 c 0
 610.901367188 911.602539062 617.98046875 916.272460938 620.065429688 918.243164062 c 0
 625.587890625 923.463867188 627.509765625 926.891601562 629.888671875 934.0546875 c 0
 632.20703125 949.081054688 624.301757812 959.352539062 614.8203125 969.430664062 c 0
 601.66015625 980.711914062 585.586914062 986.569335938 568.581054688 986.365234375 c 0
 563.981445312 986.310546875 559.40625 985.661132812 554.819335938 985.309570312 c 0
 526.526367188 980.373046875 500.522460938 967.27734375 475.448242188 953.1875 c 0
 474.810546875 952.828125 474.393554688 952.135742188 473.798828125 951.703125 c 0
 464.765625 945.125976562 455.649414062 938.676757812 446.575195312 932.1640625 c 0
 407.995117188 901.517578125 373.737304688 864.926757812 347.743164062 821.873046875 c 0
 329.423828125 791.53125 327.700195312 783.650390625 314.211914062 750.639648438 c 0
 310.541015625 737.561523438 306.138671875 724.686523438 303.19921875 711.405273438 c 0
 290.614257812 654.537109375 290.920898438 594.499023438 300.975585938 537.233398438 c 0
 303.581054688 522.397460938 307.55859375 507.864257812 310.850585938 493.1796875 c 0
 315.569335938 478.981445312 319.548828125 464.487304688 325.005859375 450.583984375 c 0
 341.2734375 409.134765625 364.038085938 369.2578125 395.951171875 338.916992188 c 0
 426.619140625 309.7578125 435.6484375 309.143554688 473.217773438 291.034179688 c 0
 489.733398438 287.046875 505.965820312 281.413085938 522.763671875 279.073242188 c 0
 589.15625 269.82421875 657.098632812 281.856445312 721.763671875 296.873046875 c 0
 749.389648438 303.2890625 776.627929688 311.426757812 804.060546875 318.704101562 c 1
 792.204101562 309.159179688 l 1
 731.594726562 292.520507812 692.880859375 279.985351562 631.565429688 270.204101562 c 0
 589.395507812 263.4765625 546.40234375 259.85546875 503.830078125 265.272460938 c 0
 486.638671875 267.459960938 470.002929688 273.090820312 453.088867188 277 c 0
 414.762695312 295.251953125 405.8046875 295.66015625 374.607421875 325.307617188 c 0
 342.44921875 355.868164062 319.514648438 396.118164062 303.123046875 437.869140625 c 0
 297.630859375 451.85546875 293.619140625 466.43359375 288.8671875 480.716796875 c 0
 285.51953125 495.466796875 281.49609375 510.064453125 278.825195312 524.965820312 c 0
 268.55078125 582.287109375 267.651367188 642.59765625 279.7421875 699.705078125 c 0
 282.568359375 713.052734375 286.884765625 726.00390625 290.456054688 739.153320312 c 0
 303.75 772.404296875 305.374023438 780.223632812 323.551757812 810.823242188 c 0
 349.135742188 853.88671875 382.932617188 890.673828125 421.040039062 921.611328125 c 0
 457.423828125 948.268554688 449.40234375 943.470703125 497.916015625 972.116210938 c 0
 518.533203125 984.290039062 540.755859375 995.05078125 563.661132812 1001.54199219 c 0
 569.169921875 1003.10253906 574.83984375 1003.94921875 580.4296875 1005.15234375 c 0
 585.219726562 1005.46972656 590.000976562 1006.11914062 594.80078125 1006.10449219 c 0
 612.6171875 1006.05273438 629.44921875 999.504882812 643.18359375 987.688476562 c 0
 653.522460938 976.767578125 661.932617188 965.51953125 660.454101562 949.244140625 c 0
 659.048828125 943.748046875 659.064453125 941.93359375 655.763671875 937.092773438 c 0
 653.344726562 933.543945312 647.259765625 927.440429688 643.959960938 925.234375 c 0
 620.928710938 909.83203125 615.328125 906.803710938 597.240234375 896.426757812 c 0
 569.953125 882.887695312 541.345703125 872.204101562 511.688476562 866.057617188 c 0
 498.859375 863.934570312 494.088867188 862.834960938 481.168945312 861.919921875 c 0
 461.75 860.545898438 442.259765625 861.971679688 423.124023438 865.624023438 c 0
 396.821289062 871.209960938 371.016601562 878.782226562 345.337890625 886.947265625 c 0
 318.43359375 894.844726562 291.180664062 901.599609375 263.40234375 905.083984375 c 0
 230.875 908.71484375 198.188476562 910.78125 165.46484375 909.291015625 c 0
 139.217773438 907.620117188 112.3984375 905.935546875 87.99609375 894.633789062 c 1
 94.6494140625 898.930664062 101.357421875 903.137695312 107.958007812 907.525390625 c 0
 110.231445312 909.037109375 103.251953125 904.779296875 100.979492188 903.265625 c 0
 95.0966796875 899.346679688 89.7802734375 894.56640625 84.91796875 889.341796875 c 2
 53 875.00390625 l 1
EndSplineSet
EndChar

StartChar: Capital D
Encoding: 68 68 4
Width: 544
GlyphClass: 2
Flags: MW
HStem: 255.866 13.3916 951.552 17.21
VStem: 104.932 26.5645<822.042 837.098> 240.246 21.5859
LayerCount: 2
Fore
SplineSet
324.220703125 969 m 0
 320.255859375 969.01171875 316.287109375 968.93359375 312.314453125 968.76171875 c 0
 305.42578125 968.147460938 298.51171875 967.853515625 291.650390625 966.919921875 c 0
 260.8046875 962.723632812 230.97265625 951.5625 203.255859375 935.583007812 c 0
 172.506835938 915.151367188 141.178710938 897.243164062 120.1171875 863.193359375 c 0
 118.456054688 860.236328125 116.665039062 857.37109375 115.1328125 854.323242188 c 0
 110.120117188 844.35546875 106.924804688 833.287109375 104.931640625 822.041992188 c 1
 131.49609375 837.09765625 l 1
 132.708984375 847.827148438 135.958007812 858.348632812 140.763671875 867.649414062 c 0
 142.265625 870.557617188 144.025390625 873.27734375 145.65625 876.092773438 c 0
 154.803710938 890.784179688 166.586914062 902.973632812 179.375 913.354492188 c 0
 182.034179688 915.512695312 184.89453125 917.342773438 187.638671875 919.356445312 c 0
 213.969726562 934.422851562 242.225585938 944.997070312 271.43359375 949.3984375 c 0
 278.297851562 950.432617188 285.22265625 950.833984375 292.1171875 951.551757812 c 0
 334.76171875 954.081054688 377.217773438 945.940429688 418.40234375 933.71484375 c 0
 428.323242188 930.76953125 438.124023438 927.310546875 447.984375 924.108398438 c 0
 502.670898438 904.079101562 555.548828125 876.936523438 603.736328125 840.8359375 c 0
 613.978515625 833.163085938 623.765625 824.70703125 633.779296875 816.642578125 c 0
 643.200195312 807.827148438 652.9375 799.444335938 662.041015625 790.196289062 c 0
 695.387695312 756.317382812 725.771484375 715.814453125 743.060546875 668.05078125 c 0
 747.045898438 657.040039062 749.514648438 645.37890625 752.7421875 634.043945312 c 0
 754.306640625 622.456054688 756.692382812 610.975585938 757.4375 599.280273438 c 0
 759.736328125 563.217773438 753.963867188 527.314453125 741.591796875 494.16015625 c 0
 730.225585938 463.703125 723.446289062 455.583984375 706.919921875 428.419921875 c 0
 699.014648438 418.3203125 691.586914062 407.696289062 683.205078125 398.122070312 c 0
 674.560546875 388.248046875 665.423828125 378.921875 655.91796875 370.163085938 c 0
 643.131835938 358.380859375 625.424804688 343.477539062 609.6328125 334.59765625 c 0
 572.634765625 313.793945312 574.046875 315.874023438 534.84375 300.095703125 c 0
 465.868164062 276.525390625 393.778320312 267.668945312 321.970703125 269.2578125 c 0
 307.709960938 269.573242188 293.477539062 270.813476562 279.23046875 271.591796875 c 0
 228.190429688 276.228515625 177.14453125 285.892578125 128.767578125 305.765625 c 0
 101.477539062 316.9765625 97.142578125 320.787109375 72.185546875 335.782226562 c 1
 53 321.262695312 l 1
 78.400390625 306.624023438 83.2744140625 302.665039062 110.869140625 291.696289062 c 0
 159.909179688 272.201171875 211.5 262.774414062 263.068359375 258.193359375 c 0
 277.379882812 257.416992188 291.678710938 256.19140625 306.00390625 255.866210938 c 0
 377.7109375 254.23828125 449.7421875 262.568359375 518.75 285.655273438 c 0
 531.591796875 290.715820312 544.645507812 295.118164062 557.27734375 300.838867188 c 0
 609.60546875 324.537109375 663.107421875 361.734375 703.13671875 407.780273438 c 0
 711.583984375 417.497070312 719.072265625 428.26171875 727.0390625 438.502929688 c 0
 743.61328125 465.924804688 750.603515625 474.424804688 761.96484375 505.166992188 c 0
 774.35546875 538.6953125 780.083984375 575.1640625 777.568359375 611.567382812 c 0
 776.752929688 623.375 774.248046875 634.947265625 772.587890625 646.63671875 c 0
 769.255859375 658.05859375 766.694335938 669.818359375 762.591796875 680.90234375 c 0
 744.84375 728.857421875 713.823242188 769.283203125 680.18359375 803.306640625 c 0
 671.022460938 812.572265625 661.260742188 821.015625 651.798828125 829.870117188 c 0
 641.78125 837.99609375 631.983398438 846.49609375 621.744140625 854.24609375 c 0
 573.766601562 890.557617188 521.23046875 918.28125 466.787109375 938.940429688 c 0
 457.0078125 942.256835938 447.290039062 945.818359375 437.451171875 948.889648438 c 0
 400.5234375 960.416015625 362.551757812 968.881835938 324.220703125 969 c 0
191.5625 852.869140625 m 1
 165.8203125 835.979492188 l 1
 175.284179688 812.538085938 181.6015625 787.58203125 188.61328125 763.076171875 c 0
 199.809570312 723.518554688 210.502929688 683.731445312 219.009765625 643.274414062 c 0
 220.932617188 634.129882812 222.616210938 624.918945312 224.419921875 615.743164062 c 0
 233.189453125 568.39453125 239.381835938 520.176757812 240.31640625 471.704101562 c 0
 240.498046875 462.293945312 240.26953125 452.876953125 240.24609375 443.463867188 c 0
 239.401367188 416.708007812 237.09375 389.956054688 232.4921875 363.689453125 c 0
 231.122070312 355.866210938 229.282226562 348.16015625 227.677734375 340.396484375 c 1
 250.314453125 352.958007812 l 1
 251.784179688 360.713867188 253.465820312 368.422851562 254.72265625 376.228515625 c 0
 258.966796875 402.5859375 261.15625 429.358398438 261.83203125 456.139648438 c 0
 261.803710938 465.573242188 261.97265625 475.01171875 261.748046875 484.44140625 c 0
 260.588867188 533.064453125 254.305664062 581.397460938 245.755859375 628.958984375 c 0
 243.9921875 638.19140625 242.3359375 647.451171875 240.46484375 656.655273438 c 0
 232.190429688 697.352539062 221.818359375 737.412109375 211.2265625 777.37109375 c 0
 204.659179688 802.532226562 198.63671875 827.88671875 191.5625 852.869140625 c 1
EndSplineSet
EndChar

StartChar: Capital E
Encoding: 69 69 5
Width: 352
GlyphClass: 2
Flags: MW
HStem: 216.631 13.9414 915.902 16.0898
VStem: 57.1113 22.2617
LayerCount: 2
Fore
SplineSet
395.494140625 932.908203125 m 0
 387.21484375 932.938476562 378.923828125 932.58203125 370.65625 931.9921875 c 0
 349.654296875 929.543945312 328.696289062 925.421875 308.677734375 918.49609375 c 0
 304.954101562 917.208007812 301.310546875 915.698242188 297.626953125 914.298828125 c 0
 276.611328125 905.173828125 255.404296875 894.967773438 237.751953125 880.16015625 c 0
 230.922851562 874.431640625 229.315429688 872.314453125 223.19921875 865.78125 c 0
 206.924804688 847.551757812 193.708984375 826.909179688 181.396484375 805.880859375 c 0
 170.173828125 785.732421875 160.545898438 764.379882812 156.935546875 741.423828125 c 0
 156.203125 736.763671875 155.958007812 732.0390625 155.46875 727.34765625 c 0
 155.067382812 708.950195312 158.705078125 690.775390625 168.255859375 674.849609375 c 0
 174.416992188 664.575195312 177.586914062 662.26953125 185.85546875 653.693359375 c 0
 204.420898438 637.44140625 227.145507812 627.598632812 251.50390625 623.99609375 c 0
 256.838867188 623.20703125 262.241210938 622.977539062 267.609375 622.466796875 c 0
 280.099609375 622.091796875 292.55078125 622.904296875 304.849609375 624.763671875 c 1
 272.97265625 606.809570312 242.108398438 587.051757812 212.724609375 565.244140625 c 0
 206.110351562 560.3359375 199.630859375 555.248046875 193.083984375 550.25 c 0
 159.112304688 523.234375 125.221679688 495.225585938 97.734375 461.37109375 c 0
 92.65234375 455.111328125 88.111328125 448.430664062 83.298828125 441.9609375 c 0
 79.37890625 435.314453125 74.978515625 428.927734375 71.537109375 422.021484375 c 0
 61.640625 402.163085938 56.1337890625 380.262695312 57.111328125 357.982421875 c 0
 57.9599609375 338.633789062 60.951171875 333.53515625 66.81640625 315.29296875 c 0
 70.2275390625 308.762695312 73.0771484375 301.90625 77.048828125 295.701171875 c 0
 89.5458984375 276.178710938 107.106445312 260.66015625 126.880859375 248.82421875 c 0
 144.799804688 238.098632812 152.48046875 236.094726562 171.947265625 228.56640625 c 0
 205.338867188 217.661132812 240.326171875 213.080078125 275.365234375 216.630859375 c 0
 302.276367188 219.358398438 308.923828125 222.333007812 335.451171875 229.451171875 c 0
 368.282226562 241.845703125 370.077148438 241.569335938 402.259765625 257.765625 c 0
 414.043945312 263.696289062 425.497070312 270.263671875 437.115234375 276.51171875 c 2
 453.275390625 289.517578125 l 2
 441.801757812 283.334960938 430.4921875 276.834960938 418.853515625 270.96875 c 0
 387.413085938 255.12109375 385.399414062 255.294921875 353.3359375 243.177734375 c 0
 327.122070312 236.129882812 320.962890625 233.302734375 294.373046875 230.572265625 c 0
 259.719726562 227.013671875 225.063476562 231.3203125 191.9921875 242.029296875 c 0
 172.737304688 249.442382812 165.206054688 251.375 147.509765625 261.986328125 c 0
 128.130859375 273.606445312 110.858398438 288.880859375 98.623046875 308.033203125 c 0
 94.7333984375 314.122070312 91.947265625 320.849609375 88.609375 327.2578125 c 0
 82.9130859375 345.302734375 80.0673828125 350.06640625 79.373046875 369.1796875 c 0
 78.2822265625 399.2109375 89.3193359375 426.954101562 105.65625 451.603515625 c 0
 110.409179688 457.974609375 114.893554688 464.556640625 119.9140625 470.71875 c 0
 147.44140625 504.501953125 181.409179688 532.3828125 215.509765625 559.181640625 c 0
 234.098632812 573.157226562 252.788085938 586.709960938 272.23046875 599.48046875 c 0
 277.515625 602.952148438 282.806640625 606.415039062 288.166015625 609.76953125 c 0
 291.776367188 612.030273438 295.509765625 614.091796875 299.1484375 616.306640625 c 0
 307.060546875 620.561523438 315.065429688 624.620117188 323.224609375 628.341796875 c 0
 328.8203125 629.673828125 334.374023438 631.208007812 339.869140625 632.94921875 c 0
 351.533203125 636.64453125 358.822265625 639.75390625 368.3046875 643.875 c 0
 369.90234375 644.229492188 371.50390625 644.573242188 373.11328125 644.892578125 c 2
 396.8125 662.62890625 l 2
 396.297851562 662.526367188 395.78515625 662.416015625 395.271484375 662.310546875 c 2
 396.328125 663.146484375 l 2
 395.372070312 662.7265625 394.61328125 662.38671875 393.708984375 661.986328125 c 0
 385.51171875 660.237304688 377.426757812 658.048828125 369.48046875 655.373046875 c 0
 358.948242188 651.778320312 348.750976562 647.427734375 338.75390625 642.642578125 c 0
 322.431640625 639.040039062 305.7421875 637.299804688 288.96875 637.689453125 c 0
 283.694335938 638.151367188 278.387695312 638.3359375 273.14453125 639.07421875 c 0
 249.321289062 642.428710938 226.963867188 651.903320312 208.708984375 667.64453125 c 0
 200.737304688 675.8671875 197.5078125 678.241210938 191.595703125 688.123046875 c 0
 182.329101562 703.611328125 178.8515625 721.3359375 179.38671875 739.20703125 c 0
 179.916015625 743.814453125 180.204101562 748.458007812 180.974609375 753.03125 c 0
 184.806640625 775.772460938 194.692382812 796.845703125 205.931640625 816.771484375 c 0
 218.514648438 837.756835938 231.955078125 858.375 248.638671875 876.384765625 c 0
 254.94140625 882.826171875 256.467773438 884.780273438 263.470703125 890.390625 c 0
 265.317382812 891.870117188 270.209960938 894.78515625 271.61328125 895.88671875 c 0
 275.8203125 898.037109375 278.639648438 899.319335938 276.220703125 897.498046875 c 1
 279.899414062 898.962890625 283.533203125 900.544921875 287.255859375 901.892578125 c 0
 307.098632812 909.076171875 327.95703125 913.30078125 348.853515625 915.90234375 c 0
 370.545898438 917.575195312 392.185546875 917.525390625 413.572265625 912.951171875 c 0
 425.737304688 909.828125 438.049804688 905.999023438 447.4765625 897.283203125 c 0
 452.54296875 892.532226562 457.05078125 887.345703125 460.958984375 881.59375 c 1
 486.400390625 896.798828125 l 1
 481.926757812 902.319335938 477.348632812 907.649414062 472.15625 912.515625 c 0
 462.213867188 921.580078125 449.393554688 925.57421875 436.638671875 928.83984375 c 0
 423.059570312 931.735351562 409.29296875 932.858398438 395.494140625 932.908203125 c 0
EndSplineSet
EndChar

StartChar: Capital F
Encoding: 70 70 6
Width: 479
GlyphClass: 2
Flags: MW
HStem: 606.867 16.0723 892.535 15.1289 915.557 15.7656 930.035 11.2656
VStem: 359.855 21.4141
LayerCount: 2
Fore
SplineSet
681.7265625 941.30078125 m 2xd8
 638.419921875 930.701171875 l 2
 631.135742188 926.368164062 627.264648438 923.849609375 619.126953125 919.931640625 c 0
 615.189453125 918.036132812 602.108398438 913.592773438 606.9375 914.529296875 c 0
 607.983398438 914.732421875 609.006835938 914.967773438 610.017578125 915.21875 c 1
 601.997070312 912.8046875 595.97265625 911.17578125 600.24609375 913.0625 c 1
 594.104492188 911.844726562 588.041015625 910.48046875 581.822265625 909.408203125 c 0
 548.68359375 903.694335938 514.124023438 901.831054688 479.779296875 903.943359375 c 0
 463.05859375 905.219726562 455.916992188 905.543945312 439.5078125 907.6640625 c 0
 414.008789062 910.958007812 389.208984375 915.935546875 364.1953125 920.26171875 c 0
 327.709960938 926.296875 290.512695312 931.173828125 252.408203125 931.322265625 c 0
 216.302734375 931.16796875 181.83203125 929.17578125 147.490234375 922.125 c 0
 113.939453125 915.01953125 82.201171875 905.38671875 53 893.1875 c 1
 94.8671875 903.08984375 l 2
 89.5888671875 901.204101562 83.2666015625 898.9296875 75.2421875 896.017578125 c 0
 72.0595703125 894.862304688 81.8955078125 898.028320312 85.27734375 898.966796875 c 0
 97.04296875 902.232421875 98.291015625 902.360351562 110.869140625 905.234375 c 0
 145.217773438 912.759765625 179.3359375 915.087890625 215.701171875 915.556640625 c 0xe8
 253.504882812 915.654296875 290.426757812 910.923828125 326.68359375 905.095703125 c 0
 330.6171875 904.434570312 334.54296875 903.752929688 338.466796875 903.064453125 c 2
 334.111328125 899.5703125 l 1
 341.909179688 883.1484375 346.431640625 864.200195312 350.916015625 845.685546875 c 0
 358.397460938 813.915039062 363.336914062 781.0546875 366.208984375 747.875 c 0
 366.9375 739.4609375 367.387695312 731.00390625 367.9765625 722.568359375 c 0
 369.643554688 687.45703125 369.26953125 652.173828125 367.353515625 617.0625 c 1
 352.217773438 620.4921875 336.866210938 622.8359375 321.26171875 622.939453125 c 0
 299.567382812 622.78125 278.85546875 620.750976562 258.220703125 613.5625 c 0
 238.061523438 606.318359375 218.993164062 596.498046875 201.447265625 584.060546875 c 1
 226.595703125 594.154296875 l 2
 223.42578125 592.232421875 219.62890625 589.9140625 214.810546875 586.947265625 c 0
 212.8984375 585.76953125 218.807617188 588.99609375 220.83984375 589.953125 c 0
 227.909179688 593.283203125 228.659179688 593.412109375 236.216796875 596.341796875 c 0
 256.85546875 604.014648438 277.357421875 606.389648438 299.20703125 606.8671875 c 0
 321.921875 606.966796875 344.10546875 602.142578125 365.890625 596.201171875 c 0
 365.939453125 596.1875 365.98828125 596.171875 366.037109375 596.158203125 c 0
 365.346679688 586.520507812 364.545898438 576.90234375 363.646484375 567.30859375 c 0
 362.55078125 555.622070312 361.119140625 543.999023438 359.85546875 532.345703125 c 0
 352.274414062 473.661132812 341.994140625 415.50390625 328.220703125 359.0078125 c 0
 325.748046875 348.866210938 323.001953125 338.858398438 320.392578125 328.783203125 c 0
 313.833984375 305.4375 307.049804688 281.930664062 297.70703125 260.392578125 c 0
 295.643554688 255.634765625 293.403320312 250.916992188 290.880859375 246.53125 c 0
 290.740234375 246.5234375 290.603515625 246.510742188 290.4609375 246.505859375 c 0
 286.04296875 246.358398438 283.145507812 247.57421875 278.857421875 248.828125 c 2
 255.486328125 226.32421875 l 1
 277.620117188 218.557617188 278.646484375 224.9140625 304.013671875 245.46484375 c 0
 305.934570312 247.584960938 308.040039062 249.415039062 309.775390625 251.82421875 c 0
 314.676757812 258.626953125 318.461914062 267.083984375 321.744140625 275.45703125 c 0
 330.204101562 297.038085938 336.3828125 320.21484375 342.537109375 343.181640625 c 0
 345.01953125 353.215820312 347.62109375 363.1953125 349.982421875 373.28515625 c 0
 363.271484375 430.06640625 373.639648438 488.208007812 381.26953125 546.95703125 c 0
 382.567382812 558.682617188 384.025390625 570.37890625 385.1640625 582.13671875 c 0
 385.42578125 584.837890625 385.676757812 587.541015625 385.923828125 590.24609375 c 1
 394.321289062 587.734375 402.743164062 585.307617188 411.294921875 583.39453125 c 0
 421.760742188 581.052734375 425.099609375 580.84375 435.779296875 579.41015625 c 0
 456.53125 577.080078125 477.462890625 578.614257812 497.611328125 584.119140625 c 0
 501.358398438 585.142578125 505.022460938 586.451171875 508.728515625 587.6171875 c 0
 512.116210938 588.997070312 515.575195312 590.209960938 518.890625 591.755859375 c 0
 522.046875 593.227539062 525.11328125 594.895507812 528.1171875 596.658203125 c 0
 541.500976562 604.51171875 555.537109375 611.5703125 567.44921875 621.626953125 c 0
 571.94140625 625.419921875 575.158203125 628.927734375 579.220703125 633.11328125 c 2
 553.19921875 622.306640625 l 2
 548.822265625 617.888671875 546.497070312 615.3203125 541.607421875 611.326171875 c 0
 539.2421875 609.393554688 531.381835938 604.86328125 534.283203125 605.818359375 c 0
 534.915039062 606.026367188 535.532226562 606.268554688 536.142578125 606.525390625 c 1
 531.319335938 604.0625 527.692382812 602.397460938 530.26171875 604.322265625 c 1
 526.571289062 603.081054688 522.9296875 601.692382812 519.193359375 600.599609375 c 0
 499.282226562 594.7734375 478.515625 592.873046875 457.87890625 595.02734375 c 0
 447.83203125 596.328125 443.541015625 596.659179688 433.681640625 598.8203125 c 0
 418.360351562 602.178710938 403.458984375 607.252929688 388.4296875 611.6640625 c 0
 388.200195312 611.728515625 387.967773438 611.787109375 387.73828125 611.8515625 c 0
 390.952148438 654.055664062 392.23828125 696.606445312 390.615234375 738.966796875 c 0
 390.107421875 747.525390625 389.73828125 756.102539062 389.091796875 764.642578125 c 0
 386.543945312 798.275390625 381.818359375 831.58203125 374.896484375 864 c 0
 372.396484375 875.454101562 369.791015625 886.91796875 366.66796875 898.08984375 c 1
 378.446289062 896.048828125 390.271484375 894.114257812 402.25 892.53515625 c 0
 419.668945312 890.23828125 425.225585938 890.033203125 443 888.626953125 c 0
 477.536132812 886.341796875 512.37109375 887.846679688 545.904296875 893.24609375 c 0
 552.140625 894.25 558.239257812 895.532226562 564.40625 896.67578125 c 0
 570.044921875 898.028320312 575.802734375 899.219726562 581.3203125 900.736328125 c 0
 586.573242188 902.1796875 591.676757812 903.81640625 596.67578125 905.544921875 c 0
 618.950195312 913.248046875 642.309570312 920.171875 662.134765625 930.03515625 c 0
 669.611328125 933.754882812 674.96484375 937.1953125 681.7265625 941.30078125 c 2xd8
633.791015625 922.849609375 m 0
 633.736328125 922.708007812 626.734375 920.4140625 619.0625 918.00390625 c 1
 623.450195312 919.546875 627.756835938 921.206054688 632.34765625 922.49609375 c 0
 633.359375 922.780273438 633.805664062 922.885742188 633.791015625 922.849609375 c 0
550.41796875 614.302734375 m 0
 550.384765625 614.159179688 546.202148438 611.833007812 541.609375 609.384765625 c 1
 544.231445312 610.951171875 546.806640625 612.6328125 549.55078125 613.94140625 c 0
 550.159179688 614.231445312 550.426757812 614.33984375 550.41796875 614.302734375 c 0
283.576171875 236.123046875 m 1
 281.793945312 234.236328125 279.765625 232.806640625 277.88671875 231.099609375 c 1
 279.981445312 232.981445312 281.8359375 234.610351562 283.576171875 236.123046875 c 1
EndSplineSet
EndChar

StartChar: Capital G
Encoding: 71 71 7
Width: 350
GlyphClass: 2
Flags: MW
HStem: 42.6074 12.2871 501.4 35.1895 967.582 16.0254
VStem: 75.5645 19.6836
LayerCount: 2
Fore
SplineSet
412.6171875 983.607421875 m 0
 388.840820312 983.653320312 365.547851562 977.997070312 343.462890625 969.45703125 c 0
 337.852539062 967.287109375 332.379882812 964.780273438 326.837890625 962.44140625 c 0
 286.263671875 943.180664062 247.106445312 920.149414062 212.8125 890.96875 c 0
 206.106445312 885.262695312 199.76171875 879.141601562 193.236328125 873.228515625 c 0
 158.333984375 839.077148438 127.599609375 800.151367188 106.16015625 756.0625 c 0
 101.758789062 747.010742188 98.2080078125 737.5703125 94.232421875 728.32421875 c 0
 79.6513671875 688.399414062 72.0888671875 646.389648438 71.421875 603.90625 c 0
 70.95703125 574.262695312 72.5419921875 567.408203125 75.564453125 537.9296875 c 0
 77.634765625 527.025390625 79.2255859375 516.01953125 81.775390625 505.216796875 c 0
 91.337890625 464.69921875 107.01953125 423.125 135.953125 392.232421875 c 0
 142.666015625 385.065429688 150.690429688 379.25 158.05859375 372.759765625 c 0
 181.470703125 360.088867188 186.543945312 354.71484375 213.78515625 350.8671875 c 0
 251.705078125 345.510742188 290.802734375 354.452148438 326.58984375 366.19921875 c 0
 340.5859375 370.793945312 354.150390625 376.603515625 367.91015625 381.8671875 c 1
 365.57421875 355.21484375 363.805664062 328.533203125 361.12109375 301.8984375 c 0
 358.053710938 272.25 352.026367188 242.811523438 343.255859375 213.892578125 c 0
 341.546875 208.256835938 339.603515625 202.666992188 337.77734375 197.0546875 c 0
 328.868164062 171.177734375 318.358398438 145.530273438 303.50390625 121.376953125 c 0
 300.888671875 117.124023438 297.958007812 112.998046875 295.185546875 108.80859375 c 0
 284.33203125 92.7412109375 271.243164062 79.3505859375 252.970703125 68.19140625 c 0
 250.903320312 66.9287109375 248.729492188 65.783203125 246.546875 64.646484375 c 0
 224.20703125 56.2578125 199.688476562 52.8330078125 175.044921875 54.89453125 c 0
 169.673828125 55.34375 164.380859375 56.2607421875 159.048828125 56.9453125 c 0
 139.376953125 60.7529296875 119.859375 66.3798828125 103.857421875 76.537109375 c 0
 94.6953125 82.353515625 94.1103515625 83.8486328125 87.216796875 91.04296875 c 0
 85.6220703125 93.7802734375 83.619140625 96.388671875 82.431640625 99.25390625 c 0
 78.5185546875 108.696289062 79.72265625 118.892578125 84.4296875 128.021484375 c 0
 89.6455078125 138.135742188 94.4716796875 141.762695312 103.015625 150.5625 c 0
 127.856445312 171.887695312 158.708007812 188.036132812 190.255859375 202.41015625 c 0
 193.708007812 203.983398438 197.422851562 205.162109375 200.9921875 206.560546875 c 0
 211.200195312 210.560546875 221.387695312 214.591796875 231.5859375 218.607421875 c 0
 241.798828125 222.243164062 252.01171875 225.877929688 262.224609375 229.513671875 c 2
 279.53125 240.416015625 l 2
 269.271484375 236.779296875 259.009765625 233.140625 248.75 229.50390625 c 0
 209.745117188 214.254882812 214.526367188 216.62890625 169.375 195.998046875 c 0
 143.62890625 184.233398438 118.11328125 171.271484375 95.8828125 155.513671875 c 0
 90.1376953125 151.440429688 84.9833984375 146.870117188 79.533203125 142.548828125 c 0
 70.5205078125 133.20703125 65.6630859375 129.633789062 60.28125 118.884765625 c 0
 55.439453125 109.213867188 54.4091796875 98.48828125 58.71875 88.583984375 c 0
 60.021484375 85.5888671875 62.1748046875 82.8720703125 63.90234375 80.015625 c 0
 66.4521484375 77.4248046875 68.7265625 74.646484375 71.55078125 72.2421875 c 0
 88.9599609375 57.419921875 113.53515625 50.0927734375 137.599609375 45.01171875 c 0
 142.91015625 44.2099609375 148.16796875 43.1435546875 153.53125 42.607421875 c 0
 178.8125 40.078125 204.2421875 43.53125 227.279296875 52 c 0
 245.861328125 60.3544921875 261.239257812 65.9375 277.099609375 75.9765625 c 0
 295.345703125 87.525390625 307.958984375 100.889648438 318.712890625 117.236328125 c 0
 321.391601562 121.43359375 324.216796875 125.57421875 326.75 129.828125 c 0
 341.19140625 154.073242188 351.473632812 179.7109375 360.19140625 205.57421875 c 0
 361.98828125 211.19921875 363.904296875 216.80078125 365.583984375 222.44921875 c 0
 374.217773438 251.484375 380.022460938 281.028320312 383.40234375 310.734375 c 0
 386.838867188 342.217773438 389.021484375 373.76953125 392.337890625 405.259765625 c 0
 395.211914062 429.52734375 398.01171875 454.081054688 407.06640625 477.482421875 c 0
 410.44921875 484.766601562 413.759765625 491.663085938 419.525390625 498.009765625 c 0
 420.689453125 499.291992188 421.938476562 500.528320312 423.26953125 501.705078125 c 0
 424.396484375 501.896484375 425.529296875 502.067382812 426.669921875 502.20703125 c 0
 426.931640625 502.237304688 427.178710938 502.266601562 427.427734375 502.296875 c 0
 429.986328125 502.587890625 432.565429688 502.770507812 435.12890625 502.884765625 c 2
 436.955078125 503.939453125 l 2
 438.939453125 504.396484375 441.051757812 504.91796875 444.103515625 505.640625 c 2
 452.3828125 508.51171875 l 1
 474.396484375 525.716796875 l 2
 471.674804688 524.666015625 468.952148438 523.615234375 466.23046875 522.564453125 c 0
 458.272460938 520.448242188 456.3828125 519.678710938 448.1171875 518.580078125 c 0
 435.376953125 516.885742188 422.454101562 517.52734375 409.7578125 519.25 c 0
 392.614257812 521.892578125 375.794921875 526.001953125 358.974609375 530.2109375 c 0
 347.059570312 533.095703125 335.057617188 536.520507812 322.708984375 536.58984375 c 0
 319.41015625 536.342773438 316.791015625 536.265625 313.552734375 535.56640625 c 0
 299.379882812 532.50390625 286.73828125 521.430664062 274.65234375 515.564453125 c 2
 302.2109375 526.34765625 l 2
 288.952148438 518.518554688 282.110351562 514.631835938 278.658203125 512.71875 c 1
 281.814453125 514.352539062 286.807617188 516.759765625 290.646484375 517.83984375 c 0
 294.254882812 518.85546875 295.75 518.897460938 299.49609375 519.369140625 c 0
 311.799804688 520.061523438 323.845703125 516.8046875 335.74609375 514.134765625 c 0
 352.764648438 510.116210938 369.745117188 506.009765625 387.021484375 503.263671875 c 0
 394.610351562 502.203125 402.2734375 501.508789062 409.94140625 501.400390625 c 1
 407.370117188 500.162109375 404.817382812 498.900390625 402.3046875 497.587890625 c 0
 399.859375 496.310546875 394.935546875 490.8828125 393.533203125 489.150390625 c 0
 388.22265625 482.5859375 385.239257812 475.607421875 382.21484375 468.240234375 c 0
 374.227539062 444.727539062 371.82421875 420.2890625 369.21484375 396.10546875 c 0
 368.955078125 393.430664062 368.712890625 390.755859375 368.46875 388.080078125 c 0
 359.904296875 384.692382812 351.329101562 381.336914062 342.578125 378.48046875 c 0
 307.6328125 367.073242188 269.561523438 358.606445312 232.578125 363.798828125 c 0
 205.806640625 367.557617188 200.8515625 372.703125 177.681640625 384.970703125 c 0
 170.340820312 391.307617188 162.358398438 396.96875 155.658203125 403.98046875 c 0
 126.65234375 434.334960938 110.801757812 475.456054688 101.3515625 515.654296875 c 0
 98.8251953125 526.40234375 97.283203125 537.357421875 95.248046875 548.208984375 c 0
 92.35546875 577.404296875 90.759765625 584.57421875 91.375 613.927734375 c 0
 92.263671875 656.314453125 100.182617188 698.172851562 115.056640625 737.8828125 c 0
 119.063476562 747.065429688 122.651367188 756.44140625 127.076171875 765.4296875 c 0
 148.788085938 809.529296875 179.899414062 848.305664062 215.228515625 882.19921875 c 0
 234.001953125 898.874023438 235.233398438 900.723632812 255.068359375 915.44921875 c 0
 261.375976562 920.131835938 268.14453125 924.18359375 274.349609375 929.001953125 c 0
 275.092773438 929.579101562 270.810546875 927.810546875 271.615234375 928.298828125 c 0
 284.834960938 936.313476562 292.844726562 939.803710938 306.595703125 946.455078125 c 0
 312.0234375 948.774414062 317.3828125 951.260742188 322.87890625 953.412109375 c 0
 344.411132812 961.837890625 367.116210938 967.470703125 390.33203125 967.58203125 c 0
 393.890625 967.416992188 397.45703125 967.389648438 401.005859375 967.0859375 c 0
 414.739257812 965.909179688 428.061523438 962.103515625 439.806640625 954.78515625 c 0
 447.798828125 949.233398438 454.930664062 943.391601562 461.12890625 935.828125 c 1
 486.470703125 951.04296875 l 1
 479.600585938 958.250976562 472.05078125 964.515625 463.84375 970.125 c 0
 451.63671875 977.676757812 437.846679688 981.741210938 423.59765625 983.048828125 c 0
 419.948242188 983.383789062 416.27734375 983.420898438 412.6171875 983.607421875 c 0
278.658203125 512.71875 m 1
 275.48828125 511.078125 274.647460938 510.49609375 278.658203125 512.71875 c 1
EndSplineSet
EndChar

StartChar: Capital H
Encoding: 72 72 8
Width: 415
GlyphClass: 2
Flags: MW
HStem: 576.787 16.5273 589.961 15.4453 952.543 20.3516
VStem: 255.135 23.8867 340.879 20.8262 432.564 26.3789<909.605 923.045>
LayerCount: 2
Fore
SplineSet
221.66015625 972.89453125 m 0x7c
 211.391601562 972.705078125 201.44921875 968.974609375 192.025390625 964.0625 c 0
 164.0234375 947.7109375 137.561523438 927.836914062 114.09375 903.041015625 c 0
 100.4140625 888.887695312 86.720703125 874.76171875 73.37109375 860.14453125 c 0
 66.3955078125 852.658203125 59.58203125 844.969726562 53 836.970703125 c 1
 80.421875 850.80078125 l 1
 86.482421875 858.76953125 93.08203125 866.077148438 99.7890625 873.224609375 c 0
 112.743164062 887.801757812 126.227539062 901.63671875 139.607421875 915.623046875 c 0
 142.400390625 918.4140625 145.16015625 921.252929688 147.986328125 923.994140625 c 0
 152.111328125 927.99609375 159.837890625 935.193359375 164.6953125 939.34375 c 0
 166.76953125 940.713867188 169.138671875 942.307617188 170.4609375 943.10546875 c 0
 180.821289062 948.700195312 191.84765625 953.047851562 203.32421875 952.54296875 c 0
 209.51953125 952.270507812 211.474609375 951.282226562 217.41015625 949.478515625 c 0
 230.142578125 944.268554688 238.571289062 934.137695312 244.294921875 919.439453125 c 0
 245.576171875 916.149414062 246.541992188 912.690429688 247.666015625 909.31640625 c 0
 254.75390625 882.512695312 254.986328125 854.168945312 255.134765625 826.296875 c 0
 255.185546875 784.302734375 250.748046875 742.631835938 245.5234375 701.2109375 c 0
 240.858398438 666.745117188 235.450195312 632.44921875 229.6796875 598.2421875 c 1
 216.376953125 591.907226562 203.83203125 583.70703125 193.275390625 573.53125 c 1
 220.625 584.859375 l 2
 221.208007812 585.512695312 221.8125 586.143554688 222.43359375 586.755859375 c 0
 224.272460938 587.331054688 226.122070312 587.817382812 227.984375 588.21875 c 1
 223.786132812 563.647460938 219.418945312 539.118164062 214.998046875 514.60546875 c 0
 201.959960938 445.758789062 188.26953125 377.103515625 175.666015625 308.134765625 c 0
 174 297.756835938 172.33203125 287.377929688 170.666015625 277 c 1
 192.16015625 289.71484375 l 1
 193.749023438 300.01953125 195.336914062 310.32421875 196.92578125 320.62890625 c 0
 209.09765625 389.5625 222.60546875 458.119140625 235.7421875 526.787109375 c 0
 239.637695312 547.8359375 243.530273438 568.887695312 247.341796875 589.9609375 c 1x7c
 253.418945312 589.90234375 259.524414062 589.423828125 265.587890625 588.890625 c 0
 286.33203125 586.176757812 307.021484375 583.079101562 327.765625 580.349609375 c 0
 333.361328125 579.588867188 338.966796875 578.923828125 344.580078125 578.361328125 c 1
 342.514648438 558.537109375 342.092773438 546.943359375 340.87890625 525.7890625 c 0
 339.657226562 489.567382812 340.287109375 453.116210938 345.65625 417.20703125 c 0
 348.9921875 394.89453125 350.657226562 390.534179688 356.12109375 369 c 0
 366.087890625 338.955078125 378.407226562 305.528320312 403.810546875 284.78125 c 0
 407.995117188 281.36328125 412.84375 278.849609375 417.359375 275.8828125 c 0
 422.513671875 274.151367188 427.4765625 271.69140625 432.8203125 270.689453125 c 0
 453.022460938 266.901367188 473.389648438 273.059570312 491.705078125 281.083984375 c 0
 513.173828125 290.490234375 542.1796875 308.80859375 560.0234375 319.294921875 c 2
 585.55859375 336.0234375 l 1
 564.3515625 327.751953125 l 1
 538.32421875 310.931640625 l 2
 528.259765625 304.092773438 528.673828125 304.103515625 511.126953125 296.2734375 c 0
 493.568359375 288.438476562 473.993164062 282.255859375 454.505859375 285.435546875 c 0
 449.31640625 286.282226562 444.454101562 288.524414062 439.427734375 290.068359375 c 0
 434.963867188 292.858398438 430.186523438 295.201171875 426.03515625 298.4375 c 0
 400.366210938 318.450195312 387.818359375 350.955078125 377.548828125 380.611328125 c 0
 375.515625 388.28125 373.198242188 395.879882812 371.44921875 403.619140625 c 0
 361.631835938 447.06640625 360.349609375 491.903320312 361.705078125 536.25 c 0
 362.69140625 552.85546875 363.162109375 563.517578125 364.36328125 576.931640625 c 1
 370.630859375 576.670898438 376.905273438 576.594726562 383.189453125 576.787109375 c 0
 386.05078125 577.088867188 388.9140625 577.389648438 391.775390625 577.69140625 c 2
 414.21875 594.400390625 l 2
 411.3984375 594.0390625 408.578125 593.67578125 405.7578125 593.314453125 c 0xbc
 392.538085938 592.716796875 379.34375 593.250976562 366.189453125 594.466796875 c 1
 370.295898438 629.556640625 377.259765625 664.301757812 386.775390625 698.318359375 c 0
 389.129882812 706.268554688 391.369140625 714.254882812 393.837890625 722.169921875 c 0
 404.65234375 756.83984375 417.787109375 790.70703125 430.91796875 824.546875 c 0
 439.53515625 846.611328125 448.72265625 868.645507812 454.126953125 891.771484375 c 0
 456.352539062 902.083007812 458.74609375 912.446289062 458.943359375 923.044921875 c 1
 432.564453125 909.60546875 l 1
 433.075195312 899.4296875 430.595703125 889.353515625 428.642578125 879.43359375 c 0
 423.663085938 856.819335938 415.091796875 835.16796875 407.11328125 813.486328125 c 0
 394.904296875 779.763671875 382.3203125 746.145507812 371.857421875 711.82421875 c 0
 369.443359375 703.90625 367.254882812 695.921875 364.953125 687.970703125 c 0
 356.75 658.028320312 350.720703125 627.498046875 346.71875 596.7109375 c 1
 327.186523438 599.282226562 307.685546875 602.056640625 288.203125 604.986328125 c 0
 275.532226562 606.372070312 262.65234375 607.611328125 250.11328125 605.40625 c 1
 256.595703125 641.721679688 262.767578125 678.118164062 268.150390625 714.705078125 c 0
 273.803710938 756.540039062 278.701171875 798.635742188 279.021484375 841.12109375 c 0
 279.114257812 869.55078125 279.064453125 898.442382812 271.98046875 925.84375 c 0
 270.84765625 929.369140625 269.884765625 932.982421875 268.58203125 936.419921875 c 0
 262.711914062 951.916992188 253.958984375 963.041992188 240.7265625 969 c 0
 234.631835938 971.078125 232.479492188 972.213867188 226.080078125 972.751953125 c 0
 224.600585938 972.875976562 223.126953125 972.921875 221.66015625 972.89453125 c 0x7c
EndSplineSet
EndChar

StartChar: Capital I
Encoding: 73 73 9
Width: 230
GlyphClass: 2
Flags: MW
HStem: 926.846 16.9395
VStem: 144.326 21.3184 157.119 26.3555
LayerCount: 2
Fore
SplineSet
196.345703125 943.78515625 m 0x80
 191.748046875 943.888671875 187.103515625 943.100585938 182.537109375 941.3671875 c 0
 180.498046875 940.59375 178.598632812 939.493164062 176.62890625 938.556640625 c 0
 154.002929688 925.19140625 149.979492188 926.848632812 140.232421875 910.466796875 c 1
 166.40234375 921.98046875 l 2
 167.502929688 923.587890625 168.469726562 925.295898438 169.705078125 926.802734375 c 0
 169.717773438 926.817382812 169.729492188 926.831054688 169.7421875 926.845703125 c 0
 176.396484375 927.84765625 183.119140625 926.80859375 189.5234375 923.62109375 c 0
 191.16015625 922.606445312 192.901367188 921.7421875 194.43359375 920.576171875 c 0
 202.436523438 914.485351562 205.690429688 905.428710938 205.017578125 895.59375 c 0
 203.133789062 885.922851562 200.645507812 879.716796875 193.880859375 872.2421875 c 0
 193.200195312 871.490234375 191.827148438 870.397460938 190.544921875 869.375 c 0
 180.662109375 867.22265625 170.392578125 868.6875 160.75390625 872.3984375 c 0
 152.419921875 876.708984375 141.143554688 882.680664062 139.71875 893.197265625 c 0
 139.544921875 894.478515625 139.798828125 895.78125 139.837890625 897.07421875 c 0
 140.41796875 898.607421875 140.734375 899.58203125 141.1171875 900.46875 c 0
 146.594726562 900.963867188 151.8125 900.231445312 157.435546875 897.966796875 c 0
 162.723632812 895.310546875 167.372070312 891.796875 171.15234375 887.203125 c 1
 196.4609375 902.7109375 l 1
 192.096679688 907.15625 187.306640625 910.94921875 181.853515625 913.955078125 c 0
 173.955078125 917.729492188 165.504882812 918.133789062 157.01953125 916.6875 c 0
 143.3203125 912.81640625 131.918945312 904.302734375 119.93359375 896.50390625 c 0
 118.067382812 895.290039062 115.51171875 891.116210938 114.724609375 889.09765625 c 0
 114.174804688 887.6875 113.986328125 886.162109375 113.6171875 884.693359375 c 0
 113.717773438 883.123046875 113.594726562 881.520507812 113.91796875 879.98046875 c 0
 116.326171875 868.502929688 127.770507812 862.0078125 137.19140625 856.966796875 c 0
 149.888671875 851.736328125 163.981445312 849.931640625 177.048828125 855.0390625 c 0
 179.506835938 856 181.78125 857.370117188 184.1484375 858.537109375 c 0
 194.264648438 864.80859375 204.67578125 870.627929688 214.49609375 877.353515625 c 0
 216.653320312 878.831054688 218.2421875 881.016601562 219.912109375 883.029296875 c 0
 224.485351562 888.541992188 227.936523438 894.921875 229.6640625 901.888671875 c 0
 230.169921875 903.928710938 230.352539062 906.034179688 230.697265625 908.107421875 c 0
 231.0703125 918.89453125 227.239257812 928.669921875 218.7578125 935.5703125 c 0
 217.141601562 936.885742188 215.303710938 937.901367188 213.576171875 939.06640625 c 0
 208.090820312 942.043945312 202.256835938 943.65234375 196.345703125 943.78515625 c 0x80
161.275390625 924.44140625 m 1
 159.22265625 923.317382812 157.0078125 922.1171875 154.419921875 920.73828125 c 1
 156.291015625 921.794921875 158.08203125 923.008789062 160.033203125 923.908203125 c 0
 160.4453125 924.098632812 160.861328125 924.267578125 161.275390625 924.44140625 c 1
206.0859375 876.171875 m 1
 203.885742188 874.921875 201.774414062 873.500976562 199.4921875 872.41015625 c 1
 201.673828125 873.702148438 203.850585938 875.0078125 206.0859375 876.171875 c 1
183.96875 823.322265625 m 1
 174.995117188 819.16015625 165.934570312 815.184570312 157.05078125 810.8359375 c 0
 156.852539062 810.739257812 157.129882812 810.399414062 157.119140625 810.1796875 c 0xa0
 157.09765625 809.724609375 157.015625 809.2734375 156.955078125 808.822265625 c 0
 156.434570312 804.936523438 155.82421875 801.063476562 155.265625 797.18359375 c 0
 151.5234375 772.44921875 147.440429688 747.755859375 144.7734375 722.873046875 c 0
 143.135742188 705.073242188 142.67578125 702.569335938 141.96484375 684.34765625 c 0
 140.763671875 653.563476562 141.978515625 622.74609375 144.326171875 592.04296875 c 0
 148.193359375 544.689453125 154.283203125 497.516601562 156.708984375 450.056640625 c 0
 156.768554688 443.397460938 157.001953125 436.73828125 156.888671875 430.080078125 c 0
 156.370117188 399.698242188 152.33203125 369.284179688 143.19921875 340.251953125 c 0
 138.32421875 326.971679688 133.9296875 315.090820312 125.841796875 303.337890625 c 0
 123.903320312 300.520507812 121.822265625 297.783203125 119.490234375 295.28125 c 0
 119.478515625 295.268554688 119.456054688 295.25 119.443359375 295.236328125 c 0
 112.166992188 294.060546875 104.541015625 295.245117188 97.66796875 297.669921875 c 0
 90.572265625 300.803710938 83.423828125 304.224609375 78.44140625 310.40625 c 1
 53 295.201171875 l 1
 58.7177734375 289.041992188 66.0830078125 285.133789062 73.6328125 281.70703125 c 0
 82.5830078125 278.357421875 92.6435546875 276.76171875 102.046875 279.314453125 c 0
 104.259765625 279.915039062 106.352539062 280.893554688 108.505859375 281.68359375 c 0
 122.786132812 290.055664062 135.513671875 293.958007812 145.326171875 305.900390625 c 0
 156.201171875 319.135742188 161.774414062 335.467773438 167.119140625 351.439453125 c 0
 175.48046875 380.692382812 179.35546875 411.137695312 179.595703125 441.5390625 c 0
 179.6484375 448.217773438 179.352539062 454.892578125 179.23046875 461.5703125 c 0
 177.224609375 500.487304688 171.282226562 539.0546875 167.673828125 577.830078125 c 0
 166.890625 586.251953125 166.321289062 594.692382812 165.64453125 603.123046875 c 0xc0
 162.911132812 640.567382812 162.344726562 678.20703125 165.669921875 715.6328125 c 0
 165.670898438 715.640625 165.670898438 715.6484375 165.671875 715.65625 c 1
 170.282226562 692.166992188 175.790039062 668.864257812 180.591796875 645.4140625 c 0
 185.627929688 620.823242188 186.365234375 615.88671875 190.916015625 590.7421875 c 0
 200.819335938 530.1484375 209.953125 469.443359375 220.697265625 408.98828125 c 0
 227.0625 375.37890625 233.577148438 341.612304688 244.013671875 308.97265625 c 0
 249.303710938 292.428710938 250.68359375 290.12890625 257.2109375 274.876953125 c 0
 262.259765625 265.616210938 264.370117188 260.5859375 270.912109375 252.626953125 c 0
 272.956054688 250.140625 275.423828125 248.036132812 277.6796875 245.740234375 c 2
 301.3203125 260.302734375 l 2
 298.995117188 262.376953125 296.458984375 264.23828125 294.34375 266.52734375 c 0
 287.452148438 273.984375 285.270507812 278.771484375 279.9140625 287.685546875 c 0
 277.536132812 292.684570312 274.955078125 297.590820312 272.78125 302.681640625 c 0
 256.849609375 339.989257812 249.060546875 380.23046875 240.921875 419.751953125 c 0
 229.791015625 480.172851562 220.760742188 540.919921875 211.41796875 601.63671875 c 0
 203.928710938 646.600585938 195.34375 691.364257812 187.78125 736.3125 c 0
 185.041992188 756.806640625 182.673828125 777.419921875 183.474609375 798.140625 c 0xa0
 183.62890625 806.411132812 183.892578125 814.684570312 183.96484375 822.953125 c 1
 183.89453125 822.916992188 183.82421875 822.881835938 183.75390625 822.845703125 c 1
 183.786132812 822.913085938 183.815429688 822.981445312 183.85546875 823.044921875 c 0
 183.874023438 823.07421875 183.916992188 823.096679688 183.966796875 823.115234375 c 0
 183.967773438 823.184570312 183.967773438 823.252929688 183.96875 823.322265625 c 1
183.966796875 823.115234375 m 0
 183.965820312 823.061523438 183.965820312 823.006835938 183.96484375 822.953125 c 1
 184.078125 823.012695312 184.192382812 823.071289062 184.306640625 823.130859375 c 0
 184.412109375 823.185546875 184.13671875 823.1796875 183.966796875 823.115234375 c 0
EndSplineSet
EndChar

StartChar: Capital J
Encoding: 74 74 10
Width: 322
GlyphClass: 2
Flags: MW
HStem: 21.666 25.6855 927.795 20G 961.334 21G<420.757 420.757> 994.184 16.4316
LayerCount: 2
Fore
SplineSet
188.133789062 1010.61523438 m 2
 187.0625 1010.625 185.993164062 1010.625 184.922851562 1010.61523438 c 0
 171.1875 1010.08886719 157.467773438 1008.91015625 144.104492188 1005.50585938 c 1
 120.657226562 987.455078125 l 1
 134.219726562 991.811523438 148.392578125 993.327148438 162.540039062 994.18359375 c 0
 179.500976562 994.678710938 196.58984375 992.506835938 212.700195312 987.056640625 c 0
 215.923828125 985.965820312 219.053710938 984.614257812 222.231445312 983.392578125 c 0
 240.305664062 976.116210938 256.912109375 965.86328125 272.887695312 954.828125 c 0
 282.123046875 948.263671875 290.916992188 941.037109375 300.450195312 934.892578125 c 0
 306.560546875 930.954101562 307.721679688 930.55859375 314.166992188 927.25390625 c 0
 326.516601562 921.400390625 339.860351562 919.790039062 353.174804688 923.1015625 c 0
 356.081054688 923.82421875 358.887695312 924.8984375 361.745117188 925.796875 c 0
 376.185546875 931.555664062 389.33984375 939.06640625 401.674804688 947.794921875 c 1
 400.165039062 945.45703125 398.65234375 942.947265625 397.098632812 940.21875 c 0
 386.046875 918.803710938 381.720703125 894.6015625 378.329101562 870.484375 c 0
 373.3671875 820.170898438 370.7109375 769.602539062 367.247070312 719.138671875 c 0
 361.396484375 636.836914062 355.756835938 554.521484375 348.661132812 472.33984375 c 0
 348.034179688 465.828125 347.397460938 459.315429688 346.762695312 452.802734375 c 1
 310.9765625 431.21875 276.374023438 407.252929688 244.735351562 378.591796875 c 0
 237.41015625 371.782226562 229.987304688 365.1015625 222.760742188 358.162109375 c 0
 186.392578125 323.23828125 152.145507812 285.447265625 121.612304688 244.09375 c 0
 98.064453125 211.12109375 72.9814453125 176.005859375 59.7958984375 135.935546875 c 0
 57.826171875 129.950195312 56.5654296875 123.703125 54.9501953125 117.5859375 c 0
 53.486328125 104.607421875 51.8115234375 99.107421875 54.1962890625 86.375 c 0
 57.5810546875 68.298828125 69.8095703125 56.5283203125 83.4755859375 47.73828125 c 0
 87.392578125 45.6279296875 91.228515625 43.318359375 95.2275390625 41.40625 c 0
 118.71875 30.173828125 144.296875 25.1982421875 169.489257812 21.666015625 c 0
 185.86328125 20.7568359375 202.200195312 19.8955078125 218.385742188 23.802734375 c 0
 242.412109375 29.603515625 264.05859375 44.9921875 282.098632812 63.251953125 c 0
 285.836914062 68.369140625 289.9765625 73.150390625 293.315429688 78.6015625 c 0
 301.399414062 91.7998046875 307.360351562 106.653320312 312.329101562 121.568359375 c 0
 322.693359375 152.680664062 328.905273438 185.254882812 334.700195312 217.72265625 c 0
 336.747070312 230.770507812 338.92578125 243.793945312 340.842773438 256.8671875 c 0
 350.510742188 322.807617188 357.407226562 389.211914062 364.104492188 455.6015625 c 0
 366.478515625 456.688476562 371.58203125 458.987304688 385.473632812 465.37109375 c 1
 404.278320312 481.919921875 l 1
 391.081054688 475.90625 377.75390625 470.149414062 364.881835938 463.279296875 c 1
 365.524414062 469.66015625 366.176757812 476.041992188 366.819335938 482.421875 c 0
 374.419921875 565.125 380.633789062 647.969726562 387.989257812 730.69921875 c 0
 392.244140625 781.692382812 395.763671875 832.828125 402.260742188 883.541015625 c 0
 406.2578125 907.637695312 411.185546875 931.833007812 422.991210938 952.873046875 c 0
 426.4375 958.381835938 427.43359375 960.400390625 431.409179688 965.212890625 c 0
 432.68359375 966.755859375 434.032226562 968.225585938 435.450195312 969.603515625 c 0
 436.639648438 970.760742188 440.614257812 973.62109375 439.217773438 972.802734375 c 0
 435.32421875 970.522460938 426.073242188 964.739257812 420.756835938 961.333984375 c 2
 442.975585938 980.6171875 l 1
 430.451171875 975.060546875 421.829101562 970.091796875 414.709960938 963.603515625 c 2
 402.512695312 958.6328125 l 2
 395.416015625 952.36328125 393.305664062 950.237304688 385.643554688 944.54296875 c 0
 384.904296875 943.993164062 383.740234375 943.236328125 382.475585938 942.4375 c 0
 380.172851562 941.599609375 377.884765625 940.71484375 375.532226562 940.037109375 c 0
 362.745117188 936.35546875 349.833007812 937.227539062 337.711914062 942.734375 c 0
 331.399414062 945.856445312 330.134765625 946.290039062 324.129882812 950.03125 c 0
 314.477539062 956.043945312 305.625976562 963.24609375 296.364257812 969.81640625 c 0
 280.130859375 980.883789062 263.37890625 991.297851562 245.127929688 998.7578125 c 0
 241.903320312 1000.03613281 238.7265625 1001.44335938 235.454101562 1002.59179688 c 0
 220.2734375 1007.91992188 204.1953125 1010.46386719 188.133789062 1010.6171875 c 1
 188.133789062 1010.61523438 l 2
346.114257812 446.119140625 m 1
 339.564453125 379.384765625 332.379882812 312.668945312 321.971679688 246.537109375 c 0
 319.900390625 233.37890625 317.514648438 220.284179688 315.286132812 207.158203125 c 0
 309 174.366210938 302.096679688 141.50390625 290.836914062 110.310546875 c 0
 285.337890625 95.0771484375 278.951171875 80.451171875 270.219726562 67.169921875 c 0
 266.661132812 61.7578125 262.307617188 57.056640625 258.352539062 52 c 0
 256.514648438 50.3994140625 254.608398438 48.88671875 252.719726562 47.3515625 c 0
 248.083007812 47.3173828125 243.819335938 43.05859375 239.192382812 41.796875 c 0
 223.161132812 37.42578125 206.98828125 38.0224609375 190.676757812 38.703125 c 0
 165.794921875 41.8564453125 140.581054688 46.93359375 117.454101562 58.09765625 c 0
 113.551757812 59.9814453125 109.806640625 62.25 105.983398438 64.326171875 c 0
 92.994140625 72.7587890625 81.326171875 83.921875 78.1162109375 101.150390625 c 0
 75.8603515625 113.254882812 77.4091796875 118.338867188 78.7568359375 130.724609375 c 0
 80.28125 136.6171875 81.4619140625 142.634765625 83.3310546875 148.40234375 c 0
 96.1220703125 187.879882812 120.444335938 222.051757812 143.499023438 254.544921875 c 0
 173.774414062 295.775390625 207.935546875 333.301757812 244.209960938 367.916015625 c 0
 251.475585938 374.849609375 258.944335938 381.51171875 266.311523438 388.310546875 c 0
 288.059570312 407.524414062 310.821289062 425.275390625 334.827148438 440.798828125 c 0
 335.778320312 441.4140625 336.9609375 441.435546875 337.961914062 441.943359375 c 0
 341.444335938 443.711914062 343.608398438 444.831054688 346.114257812 446.119140625 c 1
EndSplineSet
EndChar

StartChar: Capital K
Encoding: 75 75 11
Width: 374
GlyphClass: 2
Flags: MW
HStem: 510.117 18.5156 902.465 9.34961 915.512 17.7168
VStem: 171.98 20.0176
LayerCount: 2
Fore
SplineSet
137.1640625 959.892578125 m 1
 111.421875 943.728515625 l 1
 118.809570312 931.04296875 126.97265625 918.96875 133.748046875 905.83984375 c 0
 136.279296875 900.934570312 138.611328125 895.907226562 141.04296875 890.94140625 c 0
 154.486328125 861.995117188 163.840820312 830.856445312 168.240234375 798.66015625 c 0
 172.07421875 770.604492188 171.392578125 761.020507812 171.98046875 732.119140625 c 0
 170.555664062 665.6875 157.805664062 600.55078125 141.287109375 536.857421875 c 0
 139.388671875 530.450195312 137.506835938 524.005859375 136.12109375 517.443359375 c 0
 135.453125 514.984375 134.79296875 512.521484375 134.1171875 510.06640625 c 0
 129.455078125 493.138671875 124.338867188 476.3671875 119.44921875 459.517578125 c 0
 104.407226562 409.750976562 88.1796875 360.422851562 70.4765625 311.73046875 c 0
 65.1279296875 297.01953125 59.4921875 282.435546875 54 267.7890625 c 1
 72.08203125 277 l 1
 94.9248046875 340.166015625 117.060546875 403.649414062 136.318359375 468.27734375 c 0
 140.32421875 481.877929688 144.453125 495.435546875 148.404296875 509.0546875 c 1
 153.047851562 509.751953125 157.712890625 510.225585938 162.419921875 510.1171875 c 0
 165.447265625 510.047851562 168.463867188 509.70703125 171.486328125 509.501953125 c 0
 194.775390625 505.887695312 217.328125 496.39453125 236.416015625 481.072265625 c 0
 241.505859375 476.986328125 246.12890625 472.23828125 250.986328125 467.8203125 c 0
 255.653320312 462.294921875 260.689453125 457.124023438 264.98828125 451.24609375 c 0
 286.698242188 421.560546875 299.971679688 385.276367188 310.099609375 349.1953125 c 0
 313.002929688 338.852539062 315.366210938 328.334960938 318 317.904296875 c 0
 325.303710938 288.275390625 330.112304688 257.962890625 337.341796875 228.31640625 c 0
 339.352539062 220.072265625 341.798828125 211.96484375 344.02734375 203.7890625 c 1
 365.56640625 216.82421875 l 1
 363.155273438 224.828125 360.483398438 232.7421875 358.333984375 240.8359375 c 0
 350.5234375 270.245117188 345.526367188 300.489257812 338.25 330.05078125 c 0
 335.64453125 340.55078125 333.28125 351.12890625 330.43359375 361.552734375 c 0
 320.453125 398.0859375 307.803710938 435.088867188 286.482421875 465.62109375 c 0
 282.25390625 471.676757812 277.258789062 477.029296875 272.646484375 482.734375 c 0
 267.836914062 487.32421875 263.26171875 492.234375 258.216796875 496.505859375 c 0
 239.4921875 512.362304688 217.280273438 522.565429688 194.17578125 527.36328125 c 0
 187.201171875 528.188476562 184.563476562 528.770507812 177.787109375 528.6328125 c 0
 172.2890625 528.520507812 166.8984375 527.318359375 161.44140625 526.8125 c 1
 162.8046875 536.272460938 165.486328125 545.48828125 167.943359375 554.650390625 c 0
 175.653320312 583.893554688 188.826171875 610.732421875 201.85546875 637.400390625 c 0
 222.291015625 677.530273438 242.951171875 717.520507812 263.306640625 757.701171875 c 0
 279.733398438 789.58203125 294.436523438 822.684570312 313.412109375 852.890625 c 0
 316.404296875 857.653320312 319.6328125 862.229492188 322.744140625 866.8984375 c 0
 333.186523438 881.999023438 345.455078125 895.436523438 360.109375 905.521484375 c 0
 363.39453125 907.782226562 372.947265625 914.856445312 370.228515625 911.814453125 c 0
 366.625976562 907.783203125 361.661132812 905.581054688 357.376953125 902.46484375 c 1
 375.708984375 910.50390625 395.41015625 915.990234375 415.28125 915.51171875 c 0
 419.014648438 915.421875 422.725585938 914.846679688 426.447265625 914.513671875 c 0
 444.395507812 912.528320312 460.395507812 903.140625 477.130859375 896.619140625 c 0
 480.676757812 895.237304688 484.29296875 894.08203125 487.873046875 892.8125 c 2
 499.873046875 889.982421875 l 1
 522.169921875 907.07421875 l 2
 518.280273438 907.979492188 514.391601562 908.883789062 510.501953125 909.7890625 c 0
 506.978515625 911.026367188 503.41796875 912.14453125 499.931640625 913.501953125 c 0
 482.981445312 920.1015625 466.849609375 929.772460938 448.701171875 932.013671875 c 0
 444.891601562 932.418945312 441.095703125 933.067382812 437.271484375 933.228515625 c 0
 417.259765625 934.069335938 397.340820312 928.817382812 378.716796875 921.1796875 c 0
 363.990234375 912.440429688 348.745117188 904.620117188 334.763671875 894.5 c 0
 320.477539062 884.16015625 308.686523438 870.481445312 298.59765625 855.361328125 c 0
 295.602539062 850.692382812 292.4921875 846.112304688 289.61328125 841.35546875 c 0
 271.305664062 811.1015625 257.094726562 778.15625 240.79296875 746.609375 c 0
 220.170898438 706.1484375 199.112304688 665.963867188 178.181640625 625.697265625 c 0
 177.779296875 624.887695312 177.37890625 624.075195312 176.9765625 623.265625 c 1
 184.939453125 662.786132812 190.516601562 702.826171875 191.998046875 743.40625 c 0
 191.9375 755.241210938 192.297851562 767.088867188 191.81640625 778.912109375 c 0
 190.03515625 822.689453125 180.9375 865.713867188 163.94140625 905.36328125 c 0
 157.875976562 918.936523438 157.291992188 920.775390625 150.861328125 933.30078125 c 0
 145.517578125 943.708984375 146.251953125 941.561523438 141.353515625 950.875 c 0
 138.73046875 955.86328125 139.002929688 955.436523438 137.1640625 959.892578125 c 1
EndSplineSet
EndChar

StartChar: Capital L
Encoding: 76 76 12
Width: 436
GlyphClass: 2
Flags: MW
HStem: 322.162 16.6426
LayerCount: 2
Fore
SplineSet
325.057617188 973.72265625 m 1
 303.021484375 966.826171875 282.591796875 956.541992188 263.08203125 945.76953125 c 0
 246.905273438 936.837890625 234.665039062 924.649414062 224.067382812 911.427734375 c 0
 210.083984375 892.837890625 200.623046875 872.254882812 191.663085938 851.779296875 c 0
 177.185546875 815.5234375 164.48046875 778.8203125 152.592773438 741.9453125 c 0
 137.578125 694.801757812 127.260742188 646.793945312 117.665039062 598.75 c 0
 108.150390625 552.068359375 101.220703125 505.0859375 94.720703125 458.072265625 c 0
 90.810546875 422.65625 86.2431640625 387.317382812 80.615234375 352.05859375 c 0
 77.626953125 338.122070312 76.1669921875 323.8125 70.927734375 310.265625 c 0
 67.5361328125 303.987304688 65.43359375 297.392578125 63.3544921875 290.771484375 c 0
 61.9873046875 286.244140625 61.2333984375 281.630859375 60.6611328125 277 c 0
 58.46875 273.673828125 56.5478515625 270.229492188 55 266.640625 c 2
 59.7353515625 268.498046875 l 2
 59.6162109375 267.23828125 59.6171875 267.270507812 59.44140625 265.283203125 c 2
 91.736328125 278.615234375 l 2
 91.765625 280.940429688 91.73828125 279.682617188 91.83203125 282.38671875 c 0
 91.9521484375 284.365234375 92.1201171875 286.34375 92.337890625 288.31640625 c 0
 97.056640625 295.625976562 103.240234375 302.29296875 109.6640625 308.658203125 c 0
 111.98828125 310.583007812 114.1640625 312.634765625 116.63671875 314.431640625 c 0
 117.616210938 315.143554688 118.62890625 315.826171875 119.654296875 316.49609375 c 0
 121.912109375 317.26953125 124.556640625 318.141601562 127.440429688 318.951171875 c 0
 131.860351562 320.19140625 136.412109375 321.091796875 140.897460938 322.162109375 c 0
 167.752929688 327.684570312 195.547851562 329.806640625 223.197265625 328.564453125 c 0
 229.10546875 328.298828125 234.987304688 327.7265625 240.8828125 327.306640625 c 0
 263.78125 324.76171875 285.995117188 319.067382812 306.405273438 310.162109375 c 0
 317.184570312 305.458984375 325.223632812 300.829101562 335.3984375 295.326171875 c 0
 354.275390625 284.46484375 371.91796875 272.243164062 390.763671875 261.349609375 c 0
 403.827148438 253.798828125 406.484375 252.708007812 420.13671875 245.837890625 c 0
 440.946289062 236.284179688 463.306640625 228.513671875 487.145507812 225.94921875 c 0
 504.497070312 224.08203125 509.430664062 224.995117188 527 225.794921875 c 0
 546.915039062 228.620117188 551.16015625 228.595703125 570.713867188 234 c 0
 578.4140625 236.127929688 585.850585938 238.84765625 593.418945312 241.271484375 c 2
 617.75390625 256.927734375 l 2
 610.32421875 254.487304688 603.026367188 251.75390625 595.463867188 249.60546875 c 0
 576.459960938 244.208007812 572.055664062 244.158203125 552.677734375 241.263671875 c 0
 535.391601562 240.327148438 530.750976562 239.39453125 513.662109375 241.095703125 c 0
 490.12890625 243.438476562 468.049804688 250.966796875 447.462890625 260.28125 c 0
 433.908203125 267.078125 431.262695312 268.1640625 418.278320312 275.62890625 c 0
 399.357421875 286.506835938 381.686523438 298.755859375 362.838867188 309.716796875 c 0
 352.669921875 315.271484375 344.372070312 320.081054688 333.602539062 324.857421875 c 0
 312.973632812 334.006835938 290.506835938 339.967773438 267.3046875 342.7265625 c 0
 261.368164062 343.188476562 255.4453125 343.791015625 249.494140625 344.111328125 c 0
 221.962890625 345.594726562 194.229492188 343.908203125 167.342773438 338.8046875 c 0
 137.420898438 332.389648438 135.181640625 329.923828125 102.106445312 314.228515625 c 0
 100.9921875 313.700195312 99.8974609375 313.1484375 98.81640625 312.578125 c 1
 100.166992188 315.99609375 101.602539062 319.390625 103.05859375 322.79296875 c 0
 106.9140625 336.303710938 107.680664062 350.25 109.985351562 363.9609375 c 0
 114.403320312 398.97265625 118.094726562 434.034179688 121.873046875 469.095703125 c 0
 127.963867188 515.967773438 134.67578125 562.801757812 144.055664062 609.322265625 c 0
 153.6484375 657.453125 164.516601562 705.463867188 179.904296875 752.611328125 c 0
 192.290039062 789.78515625 205.567382812 826.7734375 221.338867188 863.091796875 c 0
 230.884765625 883.545898438 240.846679688 904.116210938 255.346679688 922.6171875 c 0
 265.622070312 934.743164062 277.30859375 945.90234375 292.18359375 954.330078125 c 0
 292.567382812 954.466796875 292.990234375 954.625976562 293.321289062 954.732421875 c 0
 294.34375 955.059570312 295.416992188 955.267578125 296.46484375 955.53515625 c 2
 325.057617188 973.72265625 l 1
EndSplineSet
EndChar

StartChar: Capital M
Encoding: 77 77 13
Width: 712
GlyphClass: 2
Flags: HMWO
HStem: 939.75 29.2207
VStem: 528.798 18.4766 822.96 13.3438
LayerCount: 2
Fore
SplineSet
275.247070312 807.2578125 m 0
 270.774414062 807.291992188 266.278320312 806.872070312 261.809570312 806.970703125 c 0
 254.29296875 804.60546875 246.412109375 804.034179688 239.258789062 799.876953125 c 0
 224.258789062 791.159179688 210.063476562 779.6328125 195.778320312 768.59375 c 0
 161.545898438 742.140625 132.672851562 703.723632812 107.547851562 660.736328125 c 0
 90.80078125 629.198242188 85.1240234375 620.543945312 71.1259765625 586.03515625 c 0
 50.5986328125 535.4296875 36.01953125 480.110351562 28.9736328125 421.97265625 c 0
 27.78125 408.931640625 26.2509765625 395.948242188 25.3955078125 382.849609375 c 0
 21.86328125 328.751953125 25.18359375 274.478515625 33.6884765625 221.705078125 c 0
 40.267578125 181.799804688 47.3212890625 141.782226562 58.1416015625 103.857421875 c 0
 63.1435546875 88.212890625 68.466796875 72.607421875 75.8896484375 59.109375 c 1
 101.231445312 81.62109375 l 1
 93.150390625 93.8701171875 87.7119140625 109.240234375 82.4970703125 124.341796875 c 0
 71.00390625 161.318359375 63.3466796875 200.595703125 56.3603515625 239.857421875 c 0
 47.5263671875 291.813476562 43.814453125 345.436523438 46.9716796875 398.912109375 c 0
 47.7353515625 411.836914062 49.1806640625 424.65234375 50.2861328125 437.5234375 c 0
 56.9853515625 495.11328125 71.4384765625 549.842773438 91.8681640625 599.791015625 c 0
 105.865234375 634.01171875 111.637695312 642.719726562 128.407226562 673.943359375 c 0
 147.956054688 706.88671875 169.643554688 737.21484375 194.514648438 761.291015625 c 0
 202.037109375 768.572265625 209.643554688 775.896484375 217.895507812 781.169921875 c 0
 218.91015625 781.818359375 219.174804688 777.580078125 220.274414062 777.75 c 0
 227.712890625 778.896484375 234.879882812 782.526367188 242.182617188 784.9140625 c 0
 249.12109375 784.865234375 256.1171875 786.083007812 262.999023438 784.765625 c 0
 284.07421875 780.729492188 302.428710938 763.794921875 316.166992188 740.263671875 c 0
 329.758789062 716.983398438 332.983398438 702.416992188 342.223632812 674.5625 c 0
 345.622070312 660.204101562 349.485351562 646.067382812 352.418945312 631.486328125 c 0
 360.696289062 590.345703125 365.96484375 548.225585938 369.622070312 505.73046875 c 0
 369.177734375 501.044921875 368.8203125 496.330078125 368.565429688 491.583984375 c 0
 367.673828125 472.845703125 367.459960938 453.994140625 370.295898438 435.55078125 c 1
 374.229492188 438.755859375 l 1
 375.66015625 412.40625 376.750976562 386.030273438 377.797851562 359.767578125 c 0
 380.291992188 278.233398438 380.577148438 196.583007812 379.286132812 115 c 1
 400.581054688 131.02734375 l 1
 399.983398438 212.0078125 398.6953125 292.987304688 396.274414062 373.896484375 c 0
 395.235351562 400.485351562 394.162109375 427.184570312 392.774414062 453.8671875 c 1
 396.260742188 456.70703125 l 1
 392.583984375 473.987304688 392.75390625 492.171875 393.454101562 510.048828125 c 0
 395.217773438 547.522460938 403.169921875 581.877929688 412.393554688 616.529296875 c 0
 423.362304688 654.379882812 437.70703125 690.190429688 456.157226562 721.1640625 c 0
 459.967773438 727.560546875 464.140625 733.466796875 468.131835938 739.6171875 c 0
 477.006835938 750.903320312 479.987304688 755.377929688 486.364257812 761.822265625 c 1
 486.358398438 761.543945312 486.499023438 761.337890625 486.842773438 761.244140625 c 0
 491.82421875 759.881835938 496.381835938 766.435546875 501.331054688 768.03125 c 0
 515.041015625 772.452148438 517.451171875 770.518554688 531.286132812 768.603515625 c 0
 536.4296875 766.15625 541.767578125 764.46484375 546.717773438 761.263671875 c 0
 572.618164062 744.514648438 592.89453125 710.932617188 608.215820312 676.8046875 c 0
 613.358398438 665.349609375 617.708007812 653.15625 622.454101562 641.33203125 c 0
 649.90625 562.755859375 663.370117188 475.817382812 670.518554688 388.48828125 c 0
 672.176757812 368.227539062 673.143554688 347.857421875 674.456054688 327.541015625 c 0
 677.873046875 247.909179688 676.4140625 167.966796875 671.959960938 88.494140625 c 0
 669.665039062 47.5341796875 668.124023438 31.9970703125 664.825195312 -7.720703125 c 1
 685.303710938 7.306640625 l 1
 692.325195312 118.303710938 697.24609375 229.90234375 692.401367188 341.376953125 c 0
 691.166992188 361.809570312 690.26171875 382.29296875 688.696289062 402.67578125 c 0
 681.932617188 490.756835938 669.196289062 578.603515625 642.727539062 658.650390625 c 0
 638.12890625 670.744140625 633.922851562 683.182617188 628.930664062 694.9296875 c 0
 614.0078125 730.046875 594.219726562 764.829101562 568.364257812 782.96484375 c 0
 563.385742188 786.45703125 557.98828125 788.45703125 552.799804688 791.203125 c 0
 538.706054688 793.795898438 536.296875 795.913085938 522.211914062 791.8984375 c 0
 502.59765625 786.30859375 488.375 771.227539062 470.553710938 755.689453125 c 0
 465.786132812 751.532226562 461.307617188 746.649414062 456.967773438 741.568359375 c 0
 452.510742188 736.350585938 448.45703125 730.416992188 444.202148438 724.841796875 c 0
 440.2578125 718.607421875 436.14453125 712.599609375 432.370117188 706.138671875 c 0
 413.92578125 674.5625 399.48828125 638.333984375 388.368164062 600.078125 c 0
 386.428710938 592.87890625 384.540039062 585.640625 382.735351562 578.359375 c 1
 379.950195312 601.673828125 376.54296875 624.815429688 372.293945312 647.69140625 c 0
 369.533203125 662.55859375 365.873046875 677.030273438 362.663085938 691.69921875 c 0
 353.768554688 720.373046875 350.75390625 735.361328125 337.284179688 759.51171875 c 0
 323.544921875 784.146484375 304.874023438 801.975585938 283.260742188 806.5 c 0
 280.60546875 807.055664062 277.930664062 807.237304688 275.247070312 807.2578125 c 0
EndSplineSet
EndChar

StartChar: Capital N
Encoding: 78 78 14
Width: 450
GlyphClass: 2
Flags: MW
VStem: 174.635 26.9121
LayerCount: 2
Fore
SplineSet
639.90625 984.92578125 m 1
 611.640625 975.197265625 l 1
 580.147460938 928.044921875 549.673828125 880.485351562 520.818359375 832.353515625 c 0
 504.737304688 804.1953125 498.776367188 794.606445312 484.30859375 765.841796875 c 0
 461.522460938 720.537109375 442.650390625 674.112304688 427.96875 626.88671875 c 0
 424.591796875 615.30859375 420.94140625 603.774414062 417.837890625 592.15234375 c 0
 403.10546875 536.983398438 394.989257812 480.896484375 389.654296875 424.783203125 c 0
 388.879882812 414.486328125 388.145507812 404.186523438 387.478515625 393.884765625 c 1
 383.340820312 412.509765625 379.233398438 431.137695312 374.99609375 449.75390625 c 0
 357.807617188 525.290039062 340.561523438 601.0078125 309.666015625 675.0390625 c 0
 296.471679688 703.436523438 292.610351562 713.938476562 275.94140625 741.36328125 c 0
 253.798828125 777.791992188 224.772460938 812.58984375 190.166015625 845.248046875 c 0
 182.965820312 851.690429688 176 858.23046875 168.564453125 864.57421875 c 0
 147.275390625 882.735351562 123.4296875 899.727539062 97.85546875 915.716796875 c 1
 92.96875 913.876953125 l 2
 92.8154296875 914.052734375 92.6650390625 914.23046875 92.51171875 914.40625 c 2
 83.771484375 910.412109375 l 1
 54 899.201171875 l 2
 57.6728515625 897.416992188 61.28125 895.5859375 64.830078125 893.712890625 c 0
 70.767578125 887.630859375 76.181640625 881.25390625 81.439453125 874.8203125 c 0
 95.76953125 857.920898438 107.919921875 840.047851562 119.107421875 821.83984375 c 0
 138.9765625 787.234375 150.25390625 750.38671875 159.912109375 713.478515625 c 0
 169.903320312 668.9296875 174.454101562 623.716796875 174.958984375 578.53515625 c 0
 175.068359375 568.747070312 174.743164062 558.958007812 174.634765625 549.169921875 c 0
 173.908203125 490.669921875 165.29296875 432.55859375 154.33203125 374.740234375 c 0
 146.810546875 337.385742188 136.786132812 300.364257812 124.27734375 263.80859375 c 1
 154.626953125 274.931640625 l 1
 165.708007812 311.356445312 174.857421875 348.10546875 181.916015625 385.1171875 c 0
 192.19921875 443.005859375 200.645507812 501.141601562 201.546875 559.630859375 c 0
 201.659179688 569.448242188 201.965820312 579.266601562 201.8828125 589.083984375 c 0
 201.5 634.567382812 197.54296875 680.100585938 188.26953125 725.048828125 c 0
 179.353515625 761.875 168.944335938 798.661132812 150.576171875 833.513671875 c 1
 151.239257812 832.955078125 151.891601562 832.391601562 152.55859375 831.833984375 c 0
 188.348632812 799.899414062 218.041992188 765.514648438 240.796875 729.45703125 c 0
 257.79296875 702.5234375 262 691.684570312 275.5 663.7578125 c 0
 307.475585938 590.041992188 324.84765625 514.461914062 341.369140625 439.03125 c 0
 354.840820312 377.139648438 365.815429688 315.061523438 380.744140625 253.2890625 c 1
 418.734375 265.46875 l 2
 418.153320312 267.532226562 417.590820312 269.59765625 417.01953125 271.662109375 c 2
 418.8984375 272.39453125 l 1
 418.564453125 284.671875 417.36328125 296.9140625 416.4765625 309.173828125 c 0
 413.247070312 351.171875 414.696289062 393.244140625 416.83984375 435.24609375 c 0
 420.79296875 491.071289062 428.772460938 546.834960938 443.37109375 601.654296875 c 0
 446.45703125 613.244140625 450.1015625 624.741210938 453.466796875 636.28515625 c 0
 468.055664062 683.397460938 486.82421875 729.723632812 509.671875 774.876953125 c 0
 524.056640625 803.305664062 530.43359375 813.51953125 546.45703125 841.33984375 c 0
 575.63671875 889.9375 606.889648438 937.791015625 639.90625 984.92578125 c 1
EndSplineSet
EndChar

StartChar: Capital O
Encoding: 79 79 15
Width: 427
GlyphClass: 2
Flags: MW
HStem: 258.838 16.4395 853.128 27.4736
VStem: 60 20.751 577.661 20.2373
LayerCount: 2
Fore
SplineSet
456.361328125 903.1171875 m 1
 446.16015625 918.258789062 433.221679688 929.674804688 419.67578125 938.3671875 c 0
 415.3359375 941.15234375 410.829101562 943.4140625 406.405273438 945.9375 c 0
 401.327148438 948.048828125 396.333007812 950.58984375 391.170898438 952.271484375 c 0
 364.625 960.91796875 336.54296875 960.657226562 309.74609375 954.46875 c 0
 301.529296875 952.571289062 293.453125 949.66015625 285.306640625 947.255859375 c 0
 258.163085938 937.745117188 232.59375 922.204101562 208.079101562 903.774414062 c 0
 205.865234375 902.110351562 203.955078125 899.772460938 201.890625 897.775390625 c 0
 168.576171875 865.5390625 184.829101562 882.578125 153.666992188 847.338867188 c 0
 126.006835938 812.678710938 101.874023438 772.395507812 89.7900390625 722.918945312 c 0
 81.6787109375 689.705078125 82.7587890625 680.977539062 80.7509765625 646.134765625 c 0
 81.458984375 632.430664062 81.478515625 618.625976562 82.8740234375 605.021484375 c 0
 88.9375 545.881835938 106.56640625 488.6328125 130.120117188 438.7890625 c 0
 136.127929688 426.076171875 143.077148438 414.256835938 149.555664062 401.990234375 c 0
 156.807617188 390.939453125 163.596679688 379.278320312 171.311523438 368.838867188 c 0
 193.54296875 338.755859375 219.685546875 314.008789062 248.544921875 297.581054688 c 0
 273.263671875 283.509765625 279.977539062 283.682617188 305.955078125 277 c 0
 315.631835938 276.42578125 325.305664062 274.788085938 334.985351562 275.27734375 c 0
 366.723632812 276.879882812 393.127929688 289.307617188 421.341796875 308.484375 c 0
 424.571289062 310.678710938 427.471679688 313.712890625 430.375 316.647460938 c 0
 439.646484375 326.015625 448.692382812 335.799804688 457.8515625 345.375976562 c 0
 493.961914062 388.1015625 523.78515625 439.90234375 544.787109375 498.836914062 c 0
 558.303710938 536.765625 560.078125 549.657226562 569.260742188 589.630859375 c 0
 579.573242188 647.193359375 584.52734375 707.158203125 577.661132812 766.123046875 c 0
 573.4921875 801.923828125 570.547851562 807.342773438 561.228515625 840.581054688 c 0
 556.735351562 851.180664062 552.80078125 862.267578125 547.75 872.380859375 c 0
 533.49609375 900.919921875 514.87890625 924.45703125 492.647460938 940.759765625 c 0
 474.314453125 954.205078125 469.850585938 954 450.16796875 960.709960938 c 0
 431.306640625 963.858398438 412.1640625 963.774414062 394.435546875 953.044921875 c 0
 389.930664062 950.318359375 379.274414062 948.4375 381.770507812 942.599609375 c 0
 390.90625 921.2265625 404.02734375 975.506835938 392.26171875 935.612304688 c 0
 392.58203125 930.79296875 392.112304688 925.747070312 393.221679688 921.155273438 c 0
 398.223632812 900.447265625 414.231445312 887.657226562 428.064453125 880.6015625 c 0
 435.392578125 876.86328125 443.1484375 874.958007812 450.690429688 872.135742188 c 1
 430.6171875 853.127929688 l 1
 422.716796875 855.884765625 414.611328125 857.705078125 406.916015625 861.400390625 c 0
 391.864257812 868.626953125 374.895507812 881.677734375 368.97265625 903.666015625 c 0
 367.610351562 908.723632812 367.918945312 914.354492188 367.391601562 919.69921875 c 0
 375.1953125 950.259765625 368.930664062 934.762695312 402.4375 965.6015625 c 0
 422.780273438 984.325195312 447.225585938 984.720703125 470.62109375 980.08984375 c 0
 490.234375 972.758789062 494.873046875 972.71875 513.092773438 958.837890625 c 0
 535.390625 941.8515625 554.024414062 917.736328125 568.2421875 888.6640625 c 0
 573.291015625 878.342773438 577.208984375 867.0546875 581.692382812 856.25 c 0
 591.004882812 822.2734375 593.8515625 817.17578125 597.8984375 780.64453125 c 0
 604.501953125 721.040039062 599.297851562 660.536132812 588.93359375 602.400390625 c 0
 579.80859375 562.485351562 577.861328125 548.892578125 564.50390625 510.9765625 c 0
 543.680664062 451.86328125 514.063476562 399.75 478.202148438 356.55078125 c 0
 469.177734375 346.921875 460.673828125 336.2890625 451.127929688 327.665039062 c 0
 428.446289062 307.17578125 401.055664062 284.696289062 374.629882812 271.893554688 c 0
 346.21875 258.127929688 316.91796875 253.884765625 287.045898438 258.837890625 c 0
 261.017578125 265.94140625 254.240234375 265.895507812 229.514648438 280.349609375 c 0
 190.173828125 303.346679688 157.25390625 341.083984375 130.447265625 386.442382812 c 0
 123.9609375 398.8203125 117.025390625 410.774414062 110.989257812 423.577148438 c 0
 87.3349609375 473.75 69.185546875 531.08203125 62.525390625 590.477539062 c 0
 60.9921875 604.15234375 60.841796875 618.0546875 60 631.842773438 c 0
 61.69140625 666.767578125 60.541015625 675.995117188 68.4091796875 709.3828125 c 0
 80.23828125 759.581054688 104.5625 800.384765625 132.409179688 835.545898438 c 0
 140.153320312 844.37890625 147.665039062 853.614257812 155.641601562 862.044921875 c 0
 179.202148438 886.947265625 199.047851562 902.768554688 226.092773438 923.625976562 c 0
 242.517578125 936.29296875 260.975585938 947.819335938 278.740234375 956.486328125 c 0
 287.19140625 960.610351562 295.89453125 963.684570312 304.471679688 967.283203125 c 0
 312.775390625 969.720703125 321.008789062 972.669921875 329.383789062 974.596679688 c 0
 356.827148438 980.909179688 385.58984375 981.23046875 412.807617188 972.6171875 c 0
 418.118164062 970.936523438 423.263671875 968.387695312 428.491210938 966.2734375 c 0
 433.059570312 963.750976562 437.705078125 961.481445312 442.1953125 958.706054688 c 0
 456.40234375 949.924804688 469.729492188 938.372070312 481.465820312 924.290039062 c 1
 456.361328125 903.1171875 l 1
EndSplineSet
EndChar

StartChar: Capital P
Encoding: 80 80 16
Width: 412
GlyphClass: 2
Flags: MW
HStem: 541.002 13.7871<174 174> 959.564 14.2539
VStem: 154.617 20.1289<555 555> 558.572 21.707
LayerCount: 2
Fore
SplineSet
266.734375 973.818359375 m 0
 240.469726562 973.879882812 214.307617188 970.451171875 188.81640625 963.923828125 c 0
 176.307617188 960.098632812 162.015625 956.34375 150.20703125 950.40625 c 0
 123.943359375 937.200195312 97.75390625 922.65234375 75.578125 903.1484375 c 0
 66.3271484375 894.0390625 55.1640625 884.20703125 53 870.703125 c 1
 79.4296875 884.16796875 l 2
 79.48828125 884.442382812 79.5703125 884.70703125 79.63671875 884.978515625 c 1
 87.798828125 876.858398438 93.1640625 866.05859375 98.556640625 856.041015625 c 0
 115.609375 823.684570312 125.473632812 788.352539062 134.662109375 753.150390625 c 0
 145.323242188 709.620117188 151.403320312 664.994140625 153.78125 620.255859375 c 0
 154.3046875 610.405273438 154.47265625 600.538085938 154.818359375 590.6796875 c 0
 154.990234375 578.9453125 154.922851562 567.20703125 154.6171875 555.474609375 c 1
 148.075195312 555.702148438 146.860351562 555.8046875 127.001953125 556.869140625 c 1
 107.009765625 542.478515625 l 1
 137.44140625 541.44140625 125.828125 541.76953125 154.123046875 541.193359375 c 1
 153.130859375 518.27734375 151.184570312 495.405273438 148.171875 472.66015625 c 0
 145.0546875 449.122070312 143.06640625 440.237304688 138.712890625 417.06640625 c 0
 132.220703125 387.409179688 124.3125 358.000976562 113.6953125 329.53515625 c 0
 109.131835938 317.299804688 107.268554688 313.354492188 102.31640625 301.916015625 c 0
 99.1884765625 295.013671875 95.9521484375 288.15234375 92.345703125 281.484375 c 0
 91.4345703125 279.799804688 89.7138671875 277.903320312 89.9765625 275.892578125 c 2
 116.638671875 289.4375 l 2
 116.985351562 288.88671875 117.41796875 290.712890625 118.599609375 293.416015625 c 0
 121.45703125 299.951171875 124.145507812 306.55859375 126.751953125 313.197265625 c 0
 130.354492188 322.610351562 133.555664062 330.75 136.83984375 340.392578125 c 0
 146.510742188 368.79296875 153.732421875 397.98828125 159.822265625 427.34375 c 0
 163.868164062 449.869140625 165.9921875 460.083984375 168.90625 482.94140625 c 0
 171.364257812 502.225585938 173.075195312 521.594726562 174.119140625 541.001953125 c 1
 233.205078125 540.611328125 292.465820312 541.965820312 350.78125 552.404296875 c 0
 378.352539062 558.229492188 388.272460938 559.4921875 414.935546875 568.404296875 c 0
 445.974609375 578.779296875 460.46875 586.944335938 491.4296875 604.65625 c 0
 499.861328125 609.479492188 508.0625 614.750976562 515.861328125 620.54296875 c 0
 523.157226562 625.961914062 529.700195312 632.326171875 536.619140625 638.21875 c 0
 550.965820312 654.962890625 555.974609375 658.701171875 565.8515625 678.3359375 c 0
 576.377929688 699.262695312 581.149414062 722.211914062 580.279296875 745.587890625 c 0
 579.987304688 753.424804688 578.517578125 761.174804688 577.63671875 768.966796875 c 0
 571.869140625 790.458007812 571.724609375 795.127929688 561.744140625 815.388671875 c 0
 545.853515625 847.645507812 521.734375 874.21875 493.2734375 895.89453125 c 0
 485.475585938 901.196289062 477.891601562 906.830078125 469.87890625 911.80078125 c 0
 429.2109375 937.029296875 383.983398438 954.546875 337.5078125 965.478515625 c 0
 314.44921875 969.809570312 308.234375 971.7109375 284.927734375 973.212890625 c 0
 278.86328125 973.603515625 272.795898438 973.803710938 266.734375 973.818359375 c 0
247.216796875 959.564453125 m 0
 253.306640625 959.616210938 259.403320312 959.478515625 265.5 959.1484375 c 0
 288.610351562 957.896484375 295.235351562 955.990234375 318.125 951.923828125 c 0
 364.592773438 941.47265625 409.850585938 924.348632812 450.40234375 899.126953125 c 0
 458.34375 894.1875 465.852539062 888.583984375 473.578125 883.3125 c 0
 501.690429688 861.798828125 525.444335938 835.435546875 540.943359375 803.40234375 c 0
 550.747070312 783.140625 550.728515625 778.833007812 556.23828125 757.361328125 c 0
 557.015625 749.65234375 558.379882812 741.98046875 558.572265625 734.234375 c 0
 559.146484375 711.176757812 554.16796875 688.581054688 543.583984375 668.056640625 c 0
 533.666015625 648.82421875 528.739257812 645.216796875 514.478515625 628.859375 c 0
 495.182617188 612.716796875 492.293945312 608.822265625 469.810546875 596.234375 c 0
 467.51953125 594.951171875 464.732421875 594.868164062 462.2734375 593.947265625 c 0
 452.345703125 590.227539062 442.6953125 585.766601562 432.669921875 582.318359375 c 0
 405.836914062 573.088867188 396.170898438 571.838867188 368.3984375 565.783203125 c 0
 304.700195312 553.922851562 239.802734375 553.381835938 175.26171875 554.771484375 c 0
 175.012695312 554.780273438 174.990234375 554.780273438 174.74609375 554.7890625 c 1
 175.328125 570.251953125 175.502929688 585.731445312 175.296875 601.203125 c 0
 174.963867188 611.09765625 174.786132812 621 174.298828125 630.888671875 c 0
 172.079101562 675.943359375 166.462890625 720.897460938 156.328125 764.876953125 c 0
 147.553710938 800.543945312 138.211914062 836.325195312 122.3515625 869.625 c 0
 116.228515625 882.091796875 110.168945312 895.198242188 99.9609375 904.92578125 c 1
 83.98828125 894.892578125 l 2
 88.4970703125 901.984375 95.205078125 907.984375 100.974609375 913.642578125 c 0
 111.825195312 923.075195312 123.446289062 931.892578125 136.19140625 938.650390625 c 0
 138.379882812 939.811523438 127.765625 933.66015625 130.15625 934.3125 c 0
 136.587890625 936.068359375 142.346679688 939.737304688 148.603515625 942.041015625 c 0
 155.330078125 944.517578125 162.248046875 946.439453125 169.0703125 948.638671875 c 0
 194.579101562 955.579101562 220.829101562 959.341796875 247.216796875 959.564453125 c 0
EndSplineSet
EndChar

StartChar: Capital Q
Encoding: 81 81 17
Width: 529
GlyphClass: 2
Flags: W
LayerCount: 2
Fore
SplineSet
417.587890625 921.712890625 m 0
 406.083007812 921.791992188 394.553710938 920.850585938 383.150390625 919.193359375 c 0
 375.849609375 918.131835938 368.619140625 916.54296875 361.353515625 915.216796875 c 0
 335.67578125 909.16796875 310.444335938 900.498046875 286.556640625 888.359375 c 0
 262.947265625 876.361328125 234.044921875 856.989257812 213.869140625 841.974609375 c 0
 204.778320312 835.208984375 196.564453125 827.103515625 187.912109375 819.66796875 c 0
 152.692382812 786.04296875 120.966796875 747.461914062 98.029296875 702.42578125 c 0
 82.3037109375 671.549804688 81.103515625 663.307617188 70.4296875 630.095703125 c 0
 67.888671875 617.442382812 64.5673828125 604.951171875 62.806640625 592.13671875 c 0
 57.5830078125 554.116210938 59.7373046875 515.625 68.548828125 478.46484375 c 0
 76.1103515625 446.575195312 81.2861328125 437.673828125 93.7421875 407.939453125 c 0
 99.5224609375 397.311523438 104.754882812 386.293945312 111.083984375 376.0546875 c 0
 128.904296875 347.225585938 151.34375 320.8046875 178.330078125 302.26953125 c 0
 201.155273438 286.59375 208.889648438 285.823242188 234.216796875 277 c 0
 244.255859375 275.52734375 254.217773438 273.098632812 264.333984375 272.580078125 c 0
 296.634765625 270.924804688 327.97265625 279.4375 357.041015625 294.689453125 c 0
 370.651367188 301.830078125 384.303710938 311.0703125 397.580078125 320.759765625 c 1
 418.530273438 285.137695312 437.7265625 248.454101562 460.703125 214.060546875 c 0
 465.80859375 206.418945312 471.272460938 199.0234375 476.556640625 191.50390625 c 0
 496.87890625 164.673828125 520.565429688 139.713867188 551.4921875 125.15625 c 0
 571.624023438 115.680664062 578.814453125 115.58984375 600.619140625 111.125 c 0
 639.91796875 106.7578125 678.624023438 113.653320312 715.390625 127.6328125 c 0
 725.05859375 131.30859375 734.37109375 135.858398438 743.861328125 139.970703125 c 2
 761.671875 154.068359375 l 2
 752.249023438 149.919921875 743.004882812 145.33984375 733.40234375 141.623046875 c 0
 697.1875 127.60546875 659.04296875 120.55859375 620.224609375 124.77734375 c 0
 598.76953125 129.109375 591.708984375 129.200195312 571.849609375 138.38671875 c 0
 541.088867188 152.616210938 517.225585938 177.008789062 496.818359375 203.453125 c 0
 491.501953125 210.908203125 485.982421875 218.22265625 480.869140625 225.818359375 c 0
 457.247070312 260.911132812 437.99609375 298.6484375 417.0546875 335.345703125 c 1
 423.084960938 339.935546875 428.991210938 344.451171875 434.7109375 348.708984375 c 0
 471.309570312 382.372070312 503.45703125 422.040039062 526.828125 468.1015625 c 0
 541.384765625 496.791015625 543.090820312 505.547851562 553.275390625 536.056640625 c 0
 564.744140625 578.154296875 569.318359375 622.104492188 564.875 665.888671875 c 0
 562.286132812 691.405273438 560.30078125 695.506835938 554.12109375 719.71484375 c 0
 545.275390625 748.811523438 529.98046875 774.052734375 511.79296875 796.94921875 c 0
 505.93359375 804.327148438 496.815429688 814.494140625 490.4765625 821.677734375 c 0
 485.7421875 827.029296875 480.44140625 832.630859375 476.26953125 838.625 c 0
 474.96875 840.494140625 473.944335938 842.579101562 472.78125 844.556640625 c 2
 448.28515625 828.5703125 l 1
 454.078125 820.37890625 460.638671875 813.088867188 467.7734375 806.279296875 c 0
 475.553710938 798.111328125 482.461914062 791.107421875 489.78125 782.314453125 c 0
 508.223632812 760.161132812 523.592773438 735.392578125 532.75390625 706.833984375 c 0
 539.07421875 683.150390625 541.138671875 678.905273438 543.91796875 653.88671875 c 0
 548.71875 610.677734375 544.383789062 567.264648438 533.0859375 525.662109375 c 0
 522.987304688 495.401367188 521.344726562 486.817382812 506.85546875 458.380859375 c 0
 483.500976562 412.543945312 451.3125 373.18359375 414.65234375 339.927734375 c 0
 414.59765625 339.868164062 414.565429688 339.83203125 414.51171875 339.7734375 c 1
 413.622070312 341.318359375 412.735351562 342.866210938 411.837890625 344.40625 c 0
 391.899414062 377.75390625 371.640625 411.681640625 342.9140625 438.357421875 c 0
 339.682617188 440.9765625 336.576171875 443.760742188 333.21875 446.216796875 c 0
 323.350585938 453.435546875 312.06640625 458.072265625 300.548828125 461.923828125 c 1
 276.32421875 445.119140625 l 1
 288.239257812 442.46875 299.879882812 438.063476562 310.087890625 431.279296875 c 0
 313.516601562 429.000976562 316.698242188 426.373046875 320.00390625 423.919921875 c 0
 349.620117188 398.47265625 370.428710938 365.038085938 390.779296875 332.181640625 c 0
 392.7734375 328.885742188 394.741210938 325.57421875 396.69921875 322.255859375 c 0
 392.37890625 319.374023438 386.268554688 316.159179688 374.533203125 309.8828125 c 0
 345.893554688 294.56640625 314.969726562 285.866210938 283.01953125 287.1875 c 0
 272.997070312 287.602539062 263.112304688 289.907226562 253.158203125 291.267578125 c 0
 228.05078125 299.747070312 220.263671875 300.487304688 197.5625 315.740234375 c 0
 170.604492188 333.853515625 148.057617188 359.796875 130.20703125 388.314453125 c 0
 123.869140625 398.440429688 118.638671875 409.360351562 112.853515625 419.8828125 c 0
 100.41796875 449.572265625 95.4111328125 458.041015625 87.9140625 489.896484375 c 0
 79.2392578125 526.755859375 77.134765625 564.895507812 82.40234375 602.578125 c 0
 84.1796875 615.2890625 87.505859375 627.677734375 90.056640625 640.2265625 c 0
 100.852539062 673.34375 101.98828125 681.3046875 117.859375 712.05859375 c 0
 141.05859375 757.01171875 173.041015625 795.420898438 208.5546875 828.775390625 c 0
 217.34765625 836.1953125 226.184570312 843.551757812 234.93359375 851.03515625 c 0
 237.301757812 853.060546875 239.31640625 855.63671875 241.90625 857.298828125 c 0
 272.786132812 877.110351562 306.592773438 890.619140625 341.474609375 898.703125 c 0
 348.561523438 899.962890625 355.61328125 901.484375 362.734375 902.482421875 c 0
 388.026367188 906.026367188 414.014648438 905.916015625 438.75 898.5703125 c 0
 451.251953125 894.142578125 463.854492188 889.290039062 474.630859375 880.7578125 c 1
 499.54296875 898.572265625 l 1
 487.622070312 906.25 474.6484375 911.279296875 461.51171875 915.708984375 c 0
 447.130859375 919.823242188 432.379882812 921.611328125 417.587890625 921.712890625 c 0
EndSplineSet
EndChar

StartChar: Capital R
Encoding: 82 82 18
Width: 497
GlyphClass: 2
Flags: MW
HStem: 939.242 15.2266
VStem: 134.85 20.0918
LayerCount: 2
Fore
SplineSet
190.755859375 954.46875 m 0
 164.953125 954.411132812 139.201171875 950.635742188 115.419921875 940.279296875 c 0
 94.14453125 928.57421875 71.7275390625 918.241210938 54 901.27734375 c 1
 66.87109375 906.609375 l 1
 75.7890625 892.142578125 83.0380859375 876.475585938 90.068359375 860.734375 c 0
 103.974609375 827.237304688 114.181640625 791.796875 121.166015625 755.583984375 c 0
 122.989257812 746.130859375 124.440429688 736.58984375 126.078125 727.091796875 c 0
 134.8984375 670.908203125 137.84375 613.686523438 136.412109375 556.658203125 c 0
 136.106445312 544.470703125 135.37109375 532.301757812 134.849609375 520.123046875 c 0
 131.844726562 472.852539062 126.391601562 425.763671875 118.7578125 379.18359375 c 0
 114.236328125 351.590820312 112.266601562 343.291015625 106.748046875 316.35546875 c 0
 98.4052734375 280.69921875 102.618164062 297.909179688 94.169921875 264.70703125 c 1
 116.66796875 277 l 1
 124.194335938 309.842773438 120.390625 292.803710938 128.044921875 328.1328125 c 0
 133.131835938 354.561523438 135.120117188 363.716796875 139.3671875 390.744140625 c 0
 146.6953125 437.379882812 152.051757812 484.458984375 154.94140625 531.736328125 c 0
 155.452148438 543.946289062 156.163085938 556.1484375 156.47265625 568.3671875 c 0
 157.926757812 625.76953125 155.461914062 683.37890625 147.271484375 740.072265625 c 0
 145.747070312 749.688476562 144.41015625 759.346679688 142.69921875 768.921875 c 0
 136.142578125 805.625976562 126.4765625 841.637695312 113.515625 876.029296875 c 0
 107.140625 891.802734375 100.469726562 907.380859375 93.01171875 922.51953125 c 0
 94.912109375 923.944335938 96.8583984375 925.3125 98.8671875 926.599609375 c 0
 101.627929688 928.369140625 110.017578125 933.487304688 107.33984375 931.595703125 c 0
 103.079101562 928.584960938 98.517578125 926.024414062 94.107421875 923.23828125 c 1
 117.927734375 934.262695312 143.874023438 938.764648438 169.994140625 939.2421875 c 0
 176.383789062 939.359375 182.774414062 939.057617188 189.1640625 938.96484375 c 0
 222.84765625 937.020507812 255.916015625 928.516601562 286.015625 913.158203125 c 0
 292.017578125 910.095703125 297.747070312 906.52734375 303.61328125 903.2109375 c 0
 326.393554688 888.477539062 347.376953125 870.688476562 362.931640625 848.2421875 c 0
 373.282226562 833.306640625 374.211914062 829 381.45703125 812.4453125 c 0
 390.239257812 786.665039062 392.546875 759.579101562 386.640625 732.875 c 0
 382.666992188 714.908203125 379.978515625 711.327148438 372.3828125 694.609375 c 0
 355.3828125 664.189453125 333.392578125 642.008789062 303.830078125 623.80078125 c 0
 301.3125 622.25 308.673828125 627.1953125 311.095703125 628.892578125 c 1
 297.256835938 622.90234375 282.502929688 618.8515625 267.65234375 620.23828125 c 1
 262.69140625 625.276367188 257.09765625 629.606445312 250.50390625 632.6484375 c 0
 249.171875 633.024414062 247.776367188 634.329101562 246.505859375 633.77734375 c 0
 236.240234375 629.321289062 212.370117188 622.264648438 219.587890625 613.712890625 c 0
 221.51171875 611.43359375 224.673828125 610.025390625 227.140625 608.6328125 c 0
 229.302734375 607.853515625 231.415039062 606.91796875 233.626953125 606.294921875 c 0
 237.576171875 605.18359375 241.526367188 604.478515625 245.46875 604.1015625 c 0
 252.995117188 596.704101562 259.05859375 587.516601562 264.85546875 579.140625 c 0
 280.70703125 554.52734375 292.657226562 527.723632812 305.958984375 501.716796875 c 0
 309.384765625 495.018554688 312.93359375 488.383789062 316.421875 481.716796875 c 0
 338.52734375 440.122070312 366.374023438 401.928710938 398.49609375 367.515625 c 0
 406.090820312 359.379882812 414.096679688 351.63671875 421.896484375 343.697265625 c 0
 468.305664062 299.22265625 519.264648438 259.305664062 574.51953125 226.34765625 c 0
 587.051757812 218.872070312 599.995117188 212.108398438 612.732421875 204.98828125 c 0
 667.3125 179.045898438 639.416015625 191.08984375 696.455078125 168.9296875 c 1
 712.369140625 179.609375 l 1
 655.73046875 201.809570312 683.420898438 189.73828125 629.26953125 215.751953125 c 0
 616.65234375 222.904296875 603.8203125 229.688476562 591.41796875 237.20703125 c 0
 536.725585938 270.361328125 486.540039062 310.641601562 440.8125 355.25390625 c 0
 433.1328125 363.219726562 425.236328125 370.981445312 417.7734375 379.150390625 c 0
 386.181640625 413.729492188 359.124023438 452.194335938 337.869140625 493.955078125 c 0
 334.512695312 500.677734375 331.092773438 507.369140625 327.80078125 514.123046875 c 0
 314.9375 540.513671875 303.388671875 567.634765625 288.08203125 592.759765625 c 0
 284.825195312 597.77734375 281.5078125 602.931640625 277.923828125 607.880859375 c 1
 282.262695312 609.203125 286.553710938 610.786132812 290.775390625 612.58203125 c 0
 308.30859375 622.33984375 326.6875 631.10546875 342.7265625 643.37109375 c 0
 364.442382812 659.9765625 382.303710938 680.966796875 395.20703125 705.052734375 c 0
 402.712890625 722.015625 405.469726562 725.822265625 409.30078125 744.013671875 c 0
 415.01953125 771.163085938 412.341796875 798.6796875 403.421875 824.8046875 c 0
 396.033203125 841.635742188 395.096679688 845.967773438 384.57421875 861.16015625 c 0
 368.850585938 883.861328125 347.690429688 901.904296875 324.755859375 916.9609375 c 0
 318.844726562 920.33203125 313.069335938 923.952148438 307.0234375 927.07421875 c 0
 276.8359375 942.665039062 243.66015625 951.4765625 209.826171875 953.908203125 c 0
 203.469726562 954.094726562 197.115234375 954.483398438 190.755859375 954.46875 c 0
245.330078125 630.775390625 m 0
 245.767578125 630.754882812 246.092773438 630.645507812 245.85546875 630.484375 c 0
 245.30859375 630.114257812 244.748046875 629.762695312 244.193359375 629.404296875 c 1
 243.989257812 629.791992188 243.856445312 630.275390625 244.1328125 630.53125 c 0
 244.34375 630.7265625 244.892578125 630.795898438 245.330078125 630.775390625 c 0
EndSplineSet
EndChar

StartChar: Capital S
Encoding: 83 83 19
Width: 323
GlyphClass: 2
Flags: MW
HStem: 949.361 16.5322
VStem: 395.112 21.9072
LayerCount: 2
Fore
SplineSet
418.014648438 928.77734375 m 1
 412.025390625 934.435546875 404.663085938 938.395507812 397.327148438 942.010742188 c 0
 382.774414062 948.795898438 366.889648438 951.493164062 351.09765625 953.543945312 c 0
 333.6328125 955.078125 315.84765625 954.1875 298.916015625 949.361328125 c 0
 295.46875 948.37890625 292.126953125 947.060546875 288.732421875 945.91015625 c 0
 285.611328125 944.415039062 276.415039062 939.627929688 279.37109375 941.42578125 c 0
 284.274414062 944.409179688 288.970703125 948.31640625 294.592773438 949.475585938 c 0
 297.791015625 950.134765625 289.479492188 945.384765625 287.206054688 943.041015625 c 0
 279.05078125 934.635742188 276.59765625 927.766601562 272.821289062 917.018554688 c 0
 272.188476562 913.470703125 271.265625 909.962890625 270.922851562 906.375976562 c 0
 268.693359375 883.080078125 276.6953125 859.348632812 283.888671875 837.598632812 c 0
 298.6953125 797.657226562 314.96484375 758.267578125 331.249023438 718.91015625 c 0
 347.778320312 680.029296875 364.810546875 641.334960938 379.358398438 601.650390625 c 0
 382.389648438 593.379882812 385.217773438 585.036132812 388.147460938 576.729492188 c 0
 401.014648438 537.390625 412.348632812 497.083007812 415.94140625 455.682617188 c 0
 416.578125 448.352539062 416.66015625 440.985351562 417.01953125 433.63671875 c 0
 416.782226562 405.74609375 411.271484375 378.169921875 397.697265625 353.5703125 c 0
 388.852539062 337.541992188 385.228515625 334.872070312 373.282226562 321.208984375 c 0
 368.282226562 316.875976562 363.573242188 312.1796875 358.280273438 308.208984375 c 0
 353.06640625 304.297851562 347.549804688 300.767578125 341.841796875 297.622070312 c 0
 318.077148438 284.525390625 307.551757812 276.651367188 283.837890625 272.868164062 c 0
 266.942382812 270.172851562 260.7890625 271.583007812 243.737304688 272.74609375 c 0
 196.7109375 280.21484375 153.623046875 301.38671875 111.720703125 323.009765625 c 0
 95.501953125 332.080078125 87.125 336.393554688 71.6708984375 346.470703125 c 0
 65.6669921875 350.384765625 59.890625 354.63671875 54 358.720703125 c 1
 74.916015625 372.044921875 l 1
 93.2451171875 359.077148438 111.784179688 346.431640625 131.846679688 336.21484375 c 0
 173.686523438 314.59375 216.892578125 293.7578125 264.0703125 287.338867188 c 0
 281.252929688 286.5078125 287.034179688 285.232421875 303.969726562 288.28125 c 0
 310.204101562 289.403320312 315.999023438 293.083007812 322.333984375 293.171875 c 0
 324.393554688 293.201171875 316.42578125 287.647460938 318.30859375 288.482421875 c 0
 330.647460938 293.952148438 339.999023438 302.984375 350.163085938 311.47265625 c 0
 362.20703125 324.794921875 365.93359375 327.470703125 374.915039062 343.201171875 c 0
 388.72265625 367.384765625 394.477539062 394.740234375 395.112304688 422.359375 c 0
 394.861328125 429.6953125 394.8984375 437.045898438 394.358398438 444.366210938 c 0
 391.309570312 485.71875 380.337890625 526.06640625 367.510742188 565.315429688 c 0
 364.57421875 573.594726562 361.745117188 581.9140625 358.700195312 590.154296875 c 0
 344.067382812 629.756835938 326.879882812 668.341796875 310.145507812 707.081054688 c 0
 293.551757812 746.29296875 276.8359375 785.47265625 261.204101562 825.078125 c 0
 253.36328125 847.09375 244.888671875 870.546875 246.370117188 894.35546875 c 0
 246.599609375 898.046875 247.42578125 901.676757812 247.954101562 905.336914062 c 0
 250.48046875 913.383789062 251.162109375 917.311523438 255.595703125 924.551757812 c 0
 267.4765625 943.952148438 290.424804688 953.760742188 310.370117188 962.6953125 c 0
 313.794921875 963.760742188 317.173828125 964.984375 320.643554688 965.893554688 c 0
 337.926757812 970.420898438 355.970703125 971.225585938 373.697265625 969.521484375 c 0
 389.911132812 967.416992188 406.20703125 964.611328125 421.18359375 957.73828125 c 0
 428.86328125 954.016601562 436.342773438 949.87890625 443.123046875 944.658203125 c 1
 418.014648438 928.77734375 l 1
EndSplineSet
EndChar

StartChar: Capital T
Encoding: 84 84 20
Width: 388
GlyphClass: 2
Flags: MW
HStem: 259.012 16.9355 909.521 14.7422 942.293 17.0684
VStem: 314.371 20.7891
LayerCount: 2
Fore
SplineSet
158.453125 965.1875 m 0
 144.458007812 965.239257812 130.940429688 963.8515625 116.724609375 959.361328125 c 0
 94.3603515625 952.252929688 74.0986328125 941.493164062 55 927.560546875 c 1
 77.958984375 936.828125 l 2
 75.82421875 935.46484375 73.8759765625 934.225585938 71.130859375 932.451171875 c 0
 68.873046875 930.9921875 75.927734375 934.883789062 78.373046875 936 c 0
 86.0859375 939.521484375 86.640625 939.490234375 94.75 942.29296875 c 0
 107.413085938 946.314453125 120.509765625 948.684570312 133.794921875 949.1015625 c 0
 142.529296875 949.375 147.006835938 948.953125 155.8046875 948.498046875 c 0
 183.114257812 946.424804688 209.54296875 938.969726562 235.927734375 932.09375 c 0
 250.926757812 928.064453125 265.935546875 924.000976562 281.04296875 920.3671875 c 1
 280.40625 920 l 1
 282.325195312 908.767578125 285.077148438 897.733398438 287.943359375 886.748046875 c 0
 295.123046875 859.29296875 300.629882812 831.397460938 305.36328125 803.345703125 c 0
 313.75 754.041992188 314.590820312 703.887695312 314.37109375 653.923828125 c 0
 313.517578125 610.672851562 310.849609375 567.44140625 306.03125 524.48828125 c 0
 302.932617188 496.868164062 301.177734375 487.326171875 296.97265625 460.064453125 c 0
 290.786132812 423.884765625 282.69140625 387.80078125 268.1015625 354.373046875 c 0
 259.913085938 335.611328125 257.942382812 333.786132812 247.48828125 317.060546875 c 0
 238.8984375 304.887695312 228.682617188 294.833007812 217.203125 286.275390625 c 0
 217.131835938 286.354492188 216.995117188 286.40625 216.771484375 286.419921875 c 0
 211.78515625 286.731445312 207.515625 282.325195312 202.7421875 280.73828125 c 0
 198.147460938 279.2109375 193.39453125 278.306640625 188.720703125 277.091796875 c 0
 171.005859375 274.916992188 179.7578125 275.255859375 162.46875 275.947265625 c 1
 140.681640625 259.01171875 l 1
 158.467773438 258.002929688 149.46875 257.790039062 167.673828125 259.771484375 c 0
 172.451171875 260.92578125 177.3046875 261.759765625 182.005859375 263.234375 c 0
 201.537109375 269.361328125 213.673828125 278.328125 232.90625 290.59765625 c 0
 247.854492188 300.133789062 260.25 313.159179688 270.685546875 328.0390625 c 0
 280.7109375 344.901367188 282.545898438 346.645507812 290.326171875 365.44921875 c 0
 304.182617188 398.938476562 311.61328125 434.904296875 317.43359375 470.87890625 c 0
 318.987304688 481.421875 320.665039062 491.944335938 322.09375 502.5078125 c 0
 329.390625 556.438476562 333.5625 610.872070312 335.16015625 665.337890625 c 0
 335.809570312 715.81640625 335.641601562 766.50390625 328.3046875 816.5078125 c 0
 324.0078125 844.916015625 318.828125 873.151367188 312.48828125 901.1171875 c 0
 311.529296875 905.444335938 310.584960938 909.786132812 309.7265625 914.14453125 c 1
 319.233398438 912.338867188 326.03515625 911.345703125 337.53125 909.521484375 c 0
 367.513671875 905.440429688 397.895507812 903.7421875 428.1484375 904.83203125 c 0
 433.924804688 905.040039062 439.688476562 905.494140625 445.458984375 905.82421875 c 0
 468.590820312 908.162109375 492.622070312 909.602539062 514.630859375 917.8515625 c 0
 517.793945312 919.037109375 520.79296875 920.6171875 523.875 922 c 2
 545.396484375 939.13671875 l 2
 542.30859375 937.602539062 539.319335938 935.8515625 536.1328125 934.53515625 c 0
 514.326171875 925.526367188 489.40234375 923.639648438 466.224609375 921.10546875 c 0
 460.452148438 920.728515625 454.685546875 920.225585938 448.90625 919.974609375 c 0
 418.737304688 918.663085938 388.4140625 920.209960938 358.50390625 924.263671875 c 0
 344.846679688 926.407226562 336.848632812 927.5 323.3125 930.267578125 c 0
 317.762695312 931.40234375 312.233398438 932.633789062 306.720703125 933.9375 c 0
 306.682617188 934.333984375 306.633789062 934.728515625 306.599609375 935.125 c 2
 305.1875 934.310546875 l 1
 289.2109375 938.12890625 273.3671875 942.532226562 257.5625 946.96875 c 0
 231.33984375 954.081054688 205.107421875 961.809570312 177.9453125 964.380859375 c 0
 171.276367188 964.84375 164.814453125 965.1640625 158.453125 965.1875 c 0
EndSplineSet
EndChar

StartChar: Capital U
Encoding: 85 85 21
Width: 436
GlyphClass: 2
Flags: MW
VStem: 210.792 20.6621 487.435 16.2969
LayerCount: 2
Fore
SplineSet
81.3720703125 960.640625 m 0
 80.443359375 960.602539062 78.7333984375 956.803710938 67.1083984375 947.138671875 c 1
 50.716796875 940.163085938 54.044921875 944.259765625 59.3173828125 940.9453125 c 1
 59.26953125 940.909179688 59.2333984375 940.879882812 59.1865234375 940.84375 c 0
 58.7138671875 940.485351562 59.80078125 939.826171875 60.1552734375 939.349609375 c 0
 60.744140625 938.556640625 61.3916015625 937.809570312 62.0107421875 937.0390625 c 0
 72.9052734375 926.475585938 85.6689453125 918.073242188 98.5927734375 910.232421875 c 0
 112.412109375 902.296875 127.18359375 896.0703125 142.627929688 892.08203125 c 0
 153.08984375 889.380859375 157.1484375 889.029296875 167.860351562 887.376953125 c 0
 185.778320312 885.370117188 203.916015625 885.352539062 221.846679688 887.251953125 c 0
 231.543945312 888.279296875 238.6484375 889.620117188 248.243164062 891.23046875 c 0
 259.9765625 893.2890625 271.481445312 896.314453125 282.756835938 900.056640625 c 1
 282.161132812 895.774414062 281.447265625 891.502929688 280.655273438 887.24609375 c 0
 277.327148438 871.903320312 274.303710938 856.51171875 271.176757812 841.13671875 c 0
 264.328125 809.86328125 256.1875 778.842773438 247.752929688 747.880859375 c 0
 239.869140625 719.39453125 231.801757812 690.927734375 225.557617188 662.11328125 c 0
 220.791015625 640.120117188 220.397460938 636.3515625 216.549804688 613.9609375 c 0
 211.502929688 580.31640625 207.845703125 546.416015625 207.948242188 512.44140625 c 0
 208.013671875 490.513671875 208.940429688 484.849609375 210.791992188 463.080078125 c 0
 214.366210938 433.365234375 220.591796875 403.650390625 232.758789062 375.666015625 c 0
 239.831054688 359.3984375 242.744140625 355.86328125 252.075195312 340.783203125 c 0
 269.025390625 317.987304688 289.038085938 295.205078125 316.827148438 282.119140625 c 0
 321.133789062 280.090820312 325.7890625 278.706054688 330.270507812 277 c 0
 340.926757812 275.13671875 344.912109375 273.427734375 355.733398438 275.41796875 c 0
 370.426757812 278.12109375 394.372070312 293.37890625 401.229492188 297.943359375 c 0
 408.391601562 302.7109375 415.439453125 314.8828125 419.645507812 321.166015625 c 0
 422.301757812 326.487304688 425.254882812 331.69921875 427.614257812 337.12890625 c 0
 432.9921875 349.51171875 437.557617188 364.166992188 441.155273438 376.953125 c 0
 448.2421875 402.145507812 453.513671875 427.684570312 458.870117188 453.1953125 c 0
 467.719726562 499.306640625 477.21875 545.30859375 487.329101562 591.208984375 c 1
 487.362304688 590.48046875 487.40234375 589.751953125 487.434570312 589.0234375 c 0
 492.069335938 521.989257812 501.311523438 454.791992188 521.629882812 389.93359375 c 0
 525.397460938 377.90625 529.971679688 366.08984375 534.143554688 354.16796875 c 0
 546.520507812 323.8046875 560.736328125 293.622070312 581.098632812 266.662109375 c 0
 586.450195312 259.576171875 592.837890625 253.147460938 598.708007812 246.390625 c 1
 618.448242188 256.83984375 l 1
 612.333007812 263.369140625 605.67578125 269.530273438 600.102539062 276.4296875 c 0
 578.893554688 302.681640625 564.248046875 332.551757812 551.458007812 362.583984375 c 0
 539.473632812 395.459960938 536.244140625 401.78515625 527.602539062 436.005859375 c 0
 514.2578125 488.846679688 507.725585938 542.91015625 504.815429688 596.9296875 c 0
 504.454101562 609.658203125 503.811523438 622.3828125 503.731445312 635.115234375 c 0
 503.66796875 645.092773438 503.783203125 655.077148438 504.077148438 665.05859375 c 0
 516.446289062 718.34765625 530.771484375 771.260742188 543.985351562 824.38671875 c 0
 546.780273438 837.591796875 550.740234375 850.618164062 553.120117188 863.896484375 c 0
 553.467773438 865.837890625 553.901367188 867.791992188 553.862304688 869.7578125 c 0
 553.842773438 870.715820312 553.958984375 872.852539062 552.946289062 872.515625 c 0
 542.942382812 869.193359375 533.797851562 864.115234375 524.225585938 859.9140625 c 1
 513.544921875 841.045898438 506.543945312 820.748046875 501.481445312 800.16796875 c 0
 499.708984375 792.963867188 498.340820312 785.685546875 496.770507812 778.4453125 c 0
 489.25 737.81640625 485.9140625 696.658203125 485.565429688 655.498046875 c 0
 484.723632812 651.837890625 483.874023438 648.1796875 483.043945312 644.517578125 c 0
 467.564453125 577.989257812 452.864257812 511.327148438 438.786132812 444.5546875 c 0
 432.97265625 418.868164062 427.27734375 393.1484375 419.526367188 367.84765625 c 0
 415.567382812 354.926757812 410.586914062 340.301757812 404.706054688 327.873046875 c 0
 402.1328125 322.435546875 398.932617188 317.249023438 396.045898438 311.9375 c 0
 392.896484375 307.626953125 390.125 303.077148438 386.596679688 299.00390625 c 0
 383.58203125 295.524414062 374.8828125 293.438476562 376.282226562 289.388671875 c 1
 366.575195312 287.251953125 362.499023438 288.708007812 352.264648438 290.033203125 c 0
 347.760742188 291.578125 343.092773438 292.786132812 338.754882812 294.666015625 c 0
 310.69921875 306.82421875 290.563476562 329.286132812 273.575195312 351.736328125 c 0
 264.247070312 366.44921875 261.171875 370.180664062 254.026367188 386.064453125 c 0
 241.595703125 413.696289062 235.102539062 443.116210938 231.454101562 472.58203125 c 0
 229.581054688 494.126953125 228.630859375 499.981445312 228.530273438 521.68359375 c 0
 228.372070312 555.59375 232.059570312 589.432617188 237.336914062 622.984375 c 0
 238.83984375 631.212890625 240.220703125 639.4609375 241.844726562 647.671875 c 0
 249.143554688 684.577148438 259.266601562 720.969726562 269.795898438 757.23828125 c 0
 278.83984375 788.623046875 287.790039062 820.032226562 295.643554688 851.671875 c 0
 299.178710938 867.237304688 302.622070312 882.818359375 306.344726562 898.349609375 c 0
 307.422851562 903.494140625 308.331054688 908.665039062 309.321289062 913.822265625 c 2
 321.645507812 923.541015625 l 2
 317.9140625 921.930664062 314.14453125 920.415039062 310.350585938 918.97265625 c 1
 310.372070312 919.076171875 310.390625 919.1796875 310.413085938 919.283203125 c 2
 305.768554688 917.287109375 l 2
 294.00390625 913.064453125 281.955078125 909.671875 269.639648438 907.337890625 c 0
 260.6328125 905.756835938 252.404296875 904.180664062 243.311523438 903.12109375 c 0
 225.564453125 901.052734375 207.59375 900.991210938 189.827148438 902.837890625 c 0
 179.315429688 904.401367188 175.192382812 904.749023438 164.918945312 907.322265625 c 0
 149.713867188 911.130859375 135.163085938 917.182617188 121.653320312 925.115234375 c 0
 110.73046875 931.944335938 100.00390625 939.30078125 90.7841796875 948.341796875 c 1
 94.5439453125 950.7734375 l 2
 91.728515625 952.639648438 88.48046875 953.828125 85.7607421875 955.830078125 c 0
 82.353515625 958.791992188 82.037109375 960.66796875 81.3720703125 960.640625 c 0
389.452148438 294.255859375 m 0
 389.533203125 294.275390625 388.715820312 293.922851562 387.846679688 293.546875 c 1
 388.143554688 293.703125 388.434570312 293.844726562 388.709960938 293.958984375 c 0
 389.173828125 294.151367188 389.40625 294.244140625 389.452148438 294.255859375 c 0
EndSplineSet
EndChar

StartChar: Capital V
Encoding: 86 86 22
Width: 399
GlyphClass: 2
Flags: MW
VStem: 55 49.4902 129.812 19.4609 138.277 17.6484
LayerCount: 2
Fore
SplineSet
560.359375 940.201171875 m 1xc0
 533.771484375 930.62109375 l 1
 493.736328125 885.169921875 454.493164062 839.216796875 418.44921875 791.45703125 c 0
 393.91015625 758.305664062 380.375976562 740.754882812 357.375 706.70703125 c 0
 319.6796875 650.907226562 286.46875 593.073242188 256.40625 534.146484375 c 0
 223.799804688 469.52734375 191.453125 404.787109375 161.373046875 339.3125 c 0
 157.240234375 329.887695312 153.206054688 320.436523438 149.2734375 310.958984375 c 1xc0
 151.571289062 378.353515625 154.197265625 445.740234375 155.92578125 513.1484375 c 0
 156.616210938 582.271484375 156.051757812 651.653320312 143.453125 720.068359375 c 0
 141.609375 729.818359375 139.952148438 739.598632812 137.919921875 749.318359375 c 0
 129.596679688 789.129882812 117.822265625 828.329101562 104.490234375 867.017578125 c 0
 96.7177734375 888.987304688 88.455078125 910.813476562 80.64453125 932.76953125 c 1
 55 920 l 1
 65.3740234375 899.170898438 74.0205078125 877.70703125 82.529296875 856.23046875 c 0
 97.060546875 818.162109375 109.268554688 779.307617188 118.150390625 739.865234375 c 0
 120.318359375 730.23828125 122.103515625 720.546875 124.080078125 710.88671875 c 0
 132.323242188 667.251953125 136.333007812 623.090820312 137.78515625 578.88671875 c 0
 138.760742188 549.178710938 138.413085938 534.989257812 138.27734375 505.14453125 c 0xa0
 136.86328125 432.735351562 133.596679688 360.361328125 129.8125 288.0234375 c 2
 127.990234375 258.755859375 l 1
 129.203125 259.30078125 l 2
 128.814453125 258.221679688 128.416015625 257.145507812 128.03125 256.064453125 c 2
 163.302734375 270.18359375 l 1
 169.859375 297.73828125 180.356445312 324.435546875 191.22265625 350.96875 c 0
 219.239257812 415.83984375 249.981445312 479.872070312 281.212890625 543.701171875 c 0
 310.364257812 602.423828125 343.01953125 659.9609375 380.421875 715.34375 c 0
 403.620117188 749.693359375 416.852539062 766.653320312 441.73828125 800.048828125 c 0
 478.506835938 848.385742188 518.942382812 894.610351562 560.359375 940.201171875 c 1xc0
EndSplineSet
EndChar

StartChar: Capital X
Encoding: 88 88 23
Width: 420
GlyphClass: 2
Flags: MW
HStem: 906.371 45.0078 907.176 18.7695
VStem: 148.348 26.1934<276.193 290.199> 410.24 23.6855<265.629 277.139>
LayerCount: 2
Fore
SplineSet
93.0625 951.861328125 m 0xb0
 84.83984375 951.986328125 86.4853515625 949.06640625 55.3046875 935.74609375 c 0
 54.1962890625 935.272460938 56.408203125 934.26171875 57.173828125 933.59375 c 0
 60.306640625 930.861328125 65.662109375 928.711914062 69.89453125 926.69140625 c 0
 88.830078125 918.901367188 110.326171875 913.163085938 132.75390625 909.82421875 c 0
 138.517578125 908.965820312 144.40234375 908.424804688 150.2265625 907.724609375 c 0
 157.104492188 907.01953125 163.986328125 906.59375 170.865234375 906.37109375 c 2xb0
 168.009765625 904.791015625 l 1
 181.575195312 892.342773438 192.6875 878.020507812 203.328125 863.412109375 c 0
 232.482421875 821.849609375 256.021484375 777.2578125 279.689453125 732.900390625 c 0
 297.307617188 699.0703125 313.837890625 664.7109375 328.146484375 629.5625 c 0
 325.521484375 625.951171875 322.892578125 622.340820312 320.26953125 618.728515625 c 0
 278.137695312 558.380859375 236.625976562 497.278320312 204.63671875 430.775390625 c 0
 186.885742188 392.764648438 169.991210938 354.313476562 156.5859375 314.517578125 c 0
 152.4609375 302.237304688 146.924804688 289.423828125 148.34765625 276.193359375 c 1
 174.541015625 290.19921875 l 1
 172.581054688 302.3515625 177.822265625 314.697265625 181.234375 326.13671875 c 0
 193.021484375 365.416992188 209.056640625 403.180664062 225.927734375 440.4921875 c 0
 250.9375 493.365234375 281.48828125 543.32421875 314.201171875 591.73046875 c 0
 320.249023438 600.6796875 326.436523438 609.534179688 332.607421875 618.3984375 c 1
 335.083007812 612.07421875 337.491210938 605.725585938 339.80859375 599.34765625 c 0
 352.10546875 565.5078125 354.83984375 554.033203125 364.96875 519.353515625 c 0
 387.782226562 436.077148438 399.583984375 350.81640625 410.240234375 265.62890625 c 1
 433.92578125 277.138671875 l 1
 422.15625 362.23046875 410.075195312 447.463867188 387.947265625 530.900390625 c 0
 378.192382812 565.180664062 375.142578125 577.895507812 363.3828125 611.421875 c 0
 359.512695312 622.458984375 355.404296875 633.418945312 351.099609375 644.310546875 c 1
 388.405273438 695.840820312 426.533203125 746.869140625 468.306640625 794.88671875 c 0
 476.341796875 804.122070312 484.674804688 813.090820312 492.859375 822.193359375 c 0
 517.268554688 848.040039062 542.440429688 873.420898438 570.50390625 895.3515625 c 0
 580.900390625 903.475585938 583.434570312 904.840820312 593.751953125 911.54296875 c 2
 568.501953125 901.66015625 l 1
 532.864257812 877.043945312 502.573242188 845.772460938 473.37109375 813.98828125 c 0
 465.416992188 804.959960938 457.3203125 796.0546875 449.505859375 786.904296875 c 0
 413.314453125 744.522460938 379.712890625 700.026367188 346.771484375 655.08203125 c 1
 334.158203125 685.94921875 320.012695312 716.280273438 305.0703125 746.240234375 c 0
 282.08984375 791.088867188 259.307617188 836.126953125 232.185546875 879.001953125 c 0
 225.852539062 888.63671875 219.236328125 898.060546875 212.130859375 907.17578125 c 1
 221.6328125 907.763671875 231.115234375 908.560546875 240.5703125 909.42578125 c 2
 277.9921875 925.9453125 l 1x70
 248.420898438 922.991210938 218.564453125 920.59375 188.619140625 923.439453125 c 0
 182.9453125 924.088867188 177.208984375 924.57421875 171.59765625 925.390625 c 0
 150.036132812 928.528320312 129.374023438 934.125 111.66796875 942 c 0
 108 943.9296875 105.75 945.31640625 103.9375 946.45703125 c 2
 115.44140625 951.3671875 l 2
 110.581054688 951.311523438 105.71875 951.328125 100.857421875 951.37890625 c 0
 97.384765625 951.641601562 94.9609375 951.833007812 93.0625 951.861328125 c 0xb0
60.783203125 933.8984375 m 1
 60.17578125 933.69140625 59.607421875 933.4921875 58.978515625 933.28125 c 0
 58.580078125 933.147460938 59.58203125 933.689453125 59.8828125 933.892578125 c 0
 60.18359375 933.895507812 60.4833984375 933.895507812 60.783203125 933.8984375 c 1
EndSplineSet
EndChar

StartChar: Capital Y
Encoding: 89 89 24
Width: 438
GlyphClass: 2
Flags: MW
HStem: 337.533 16.7324 928.442 20G<210.523 210.523> 961.911 21G<226.398 226.398>
VStem: 162.699 22.1875 177.742 24.5859 581.742 35.0879
LayerCount: 2
Fore
SplineSet
78.662109375 970.38671875 m 1xf4
 53 954.744140625 l 1
 57.7431640625 948.111328125 63.283203125 942.448242188 69.654296875 937.580078125 c 0
 79.962890625 930.499023438 91.525390625 926.090820312 103.404296875 922.994140625 c 0
 118.232421875 919.516601562 132.510742188 920.474609375 147.34375 923.078125 c 0
 162.58984375 925.908203125 177.12890625 931.512695312 191.447265625 937.53515625 c 0
 196.556640625 939.686523438 201.4921875 942.21875 206.359375 944.907226562 c 2
 210.5234375 948.442382812 l 2
 209.001953125 945.333984375 207.569335938 942.180664062 206.283203125 938.936523438 c 0
 199.849609375 923.703125 194.244140625 908.153320312 189.123046875 892.385742188 c 0
 179.44921875 861.069335938 173.291992188 828.747070312 167.56640625 796.426757812 c 0
 159.938476562 754.790039062 158.1015625 712.408203125 156.87109375 670.134765625 c 0
 155.953125 624.887695312 158.13671875 579.676757812 162.69921875 534.698242188 c 0xf4
 166.52734375 502.159179688 172.197265625 469.634765625 182.28125 438.533203125 c 0
 184.08203125 432.978515625 186.189453125 427.538085938 188.14453125 422.041015625 c 0
 196.943359375 399.140625 209.421875 377.9453125 227.689453125 362.095703125 c 0
 230.780273438 359.4140625 234.147460938 357.10546875 237.376953125 354.610351562 c 0
 253.616210938 344.068359375 272.181640625 337.561523438 291.3984375 337.533203125 c 0
 295.16796875 337.52734375 298.922851562 338.0234375 302.685546875 338.268554688 c 0
 306.481445312 338.995117188 310.325195312 339.487304688 314.07421875 340.4453125 c 0
 321.127929688 342.249023438 330.083984375 345.532226562 336.451171875 349.212890625 c 0
 352.9453125 358.745117188 367.149414062 366.227539062 380.80078125 378.587890625 c 0
 384.295898438 381.752929688 387.491210938 385.270507812 390.8359375 388.610351562 c 0
 412.813476562 411.266601562 428.678710938 439.004882812 444.275390625 466.614257812 c 0
 460.526367188 496.1640625 474.89453125 526.794921875 488.50390625 557.767578125 c 0
 504.198242188 593.428710938 517.838867188 630.016601562 531.611328125 666.52734375 c 0
 543.541992188 698.081054688 555.577148438 729.58984375 567.82421875 761.0078125 c 1
 566.141601562 749.239257812 564.34375 737.487304688 562.4609375 725.747070312 c 0
 556.494140625 688.91796875 549.283203125 652.318359375 541.375 615.8671875 c 0
 531.772460938 573.7109375 520.209960938 532.043945312 509.087890625 490.278320312 c 0
 497.872070312 447.29296875 484.920898438 404.790039062 471.521484375 362.453125 c 0
 461.697265625 331.29296875 450.97265625 300.352539062 437.74609375 270.470703125 c 0
 435.259765625 264.852539062 432.560546875 259.33203125 429.96875 253.762695312 c 0
 417.029296875 226.979492188 401.690429688 201.38671875 384.236328125 177.34375 c 0
 380.807617188 172.620117188 377.166992188 168.055664062 373.6328125 163.411132812 c 0
 352.282226562 135.56640625 327.877929688 110.42578125 302.869140625 85.9609375 c 0
 291.647460938 75.6865234375 280.306640625 65.4814453125 267.994140625 56.5302734375 c 0
 267.637695312 56.2705078125 267.157226562 55.958984375 266.66015625 55.640625 c 0
 264.818359375 54.6513671875 262.874023438 53.595703125 261.720703125 53.052734375 c 0
 250.836914062 48.939453125 238.471679688 46.1337890625 227.41015625 51.3994140625 c 0
 225.55859375 52.2802734375 223.9140625 53.55078125 222.166015625 54.6259765625 c 0
 208.865234375 65.880859375 205.03125 79.72265625 202.328125 96.3759765625 c 0
 200.262695312 112.918945312 204.295898438 128.568359375 211.9765625 143.162109375 c 0
 213.918945312 146.852539062 216.170898438 150.369140625 218.267578125 153.97265625 c 0
 234.905273438 178.78515625 255.763671875 200.583007812 278.064453125 220.283203125 c 0
 283.83203125 225.377929688 289.840820312 230.188476562 295.728515625 235.140625 c 2
 273.142578125 225.948242188 l 2
 267.150390625 220.91015625 261.041992188 216.009765625 255.16796875 210.83203125 c 0
 232.265625 190.64453125 210.7734375 168.387695312 193.662109375 142.948242188 c 0
 191.498046875 139.220703125 189.1640625 135.588867188 187.171875 131.765625 c 0
 179.275390625 116.612304688 175.4453125 100.314453125 177.7421875 83.2294921875 c 0xec
 178.24609375 80.22265625 178.591796875 77.185546875 179.25390625 74.2099609375 c 0
 182.20703125 60.935546875 187.926757812 48.169921875 198.2421875 39.1259765625 c 0
 200.09375 37.8720703125 201.82421875 36.4140625 203.796875 35.365234375 c 0
 215.315429688 29.2412109375 228.455078125 31.5927734375 240.13671875 35.771484375 c 0
 272.65625 50.46875 301.349609375 70.96875 326.802734375 95.91796875 c 0
 351.70703125 120.504882812 376.009765625 145.760742188 397.294921875 173.666992188 c 0
 400.81640625 178.34765625 404.439453125 182.953125 407.859375 187.708984375 c 0
 425.22265625 211.857421875 440.391601562 237.573242188 453.216796875 264.446289062 c 0
 469.319335938 299.69921875 483.040039062 335.97265625 494.076171875 373.17578125 c 0
 507.166015625 415.547851562 519.9296875 458.036132812 531.251953125 500.928710938 c 0
 542.580078125 542.772460938 554.240234375 584.547851562 563.90234375 626.82421875 c 0
 572.008789062 663.536132812 579.609375 700.360351562 586.107421875 737.400390625 c 0
 590.598632812 763.733398438 594.741210938 790.127929688 597.8828125 816.6640625 c 0
 599.348632812 828.947265625 600.669921875 841.258789062 602.35546875 853.516601562 c 0
 605.538085938 863.06640625 608.5859375 872.6640625 611.427734375 882.33984375 c 0
 614.814453125 896.4765625 620.190429688 911.6953125 616.830078125 926.385742188 c 0
 616.470703125 927.40625 616.041992188 928.353515625 615.54296875 929.224609375 c 0
 615.749023438 930.619140625 615.95703125 932.01171875 616.19140625 933.40234375 c 2
 613.41015625 932.032226562 l 2
 612.205078125 933.262695312 610.778320312 934.263671875 609.0859375 935.000976562 c 0
 597.666992188 939.127929688 607.875976562 936.48046875 581.7421875 918.294921875 c 0
 582.021484375 916.37890625 581.537109375 914.627929688 581.177734375 912.771484375 c 2
 587.83203125 916.168945312 l 2
 588.293945312 915.873046875 588.712890625 915.51171875 589.1015625 915.108398438 c 0
 588.610351562 910.013671875 587.991210938 904.936523438 587.21875 899.87109375 c 0
 585.112304688 887.266601562 582.545898438 874.7421875 580.43359375 862.139648438 c 0
 578.91796875 853.255859375 577.754882812 844.322265625 576.7265625 835.373046875 c 0
 569.540039062 813.384765625 561.438476562 791.7265625 552.923828125 770.2578125 c 0
 537.876953125 732.0859375 523.182617188 693.766601562 508.671875 655.366210938 c 0
 494.814453125 618.765625 480.962890625 582.141601562 464.978515625 546.4921875 c 0
 451.166992188 515.590820312 436.688476562 484.990234375 420.359375 455.458984375 c 0
 404.663085938 427.885742188 388.540039062 400.297851562 366.1953125 377.986328125 c 0
 362.771484375 374.713867188 359.495117188 371.259765625 355.921875 368.16796875 c 0
 352.836914062 365.499023438 343.6640625 363.03515625 344.572265625 360.637695312 c 0
 336.885742188 357.569335938 333.6328125 357.243164062 324.62890625 355.30078125 c 0
 320.934570312 354.956054688 317.254882812 354.354492188 313.546875 354.265625 c 0
 294.70703125 353.814453125 276.35546875 359.908203125 260.25390625 369.897460938 c 0
 257.034179688 372.274414062 253.677734375 374.458984375 250.595703125 377.029296875 c 0
 232.356445312 392.239257812 219.838867188 412.985351562 210.82421875 435.305664062 c 0
 208.838867188 440.7265625 206.700195312 446.084960938 204.869140625 451.564453125 c 0
 194.5859375 482.34375 188.873046875 514.639648438 184.88671875 546.909179688 c 0
 180.1171875 591.713867188 177.72265625 636.786132812 178.982421875 681.88671875 c 0
 180.442382812 724.177734375 182.66015625 766.567382812 190.548828125 808.171875 c 0
 196.622070312 840.725585938 203.250976562 873.262695312 213.900390625 904.5625 c 0
 219.48828125 920.515625 225.635742188 936.209960938 232.556640625 951.579101562 c 0
 235.310546875 957.606445312 238.2734375 963.590820312 242.037109375 969 c 2
 226.3984375 961.911132812 l 1
 228.798828125 963.94921875 l 2
 225.991210938 962.229492188 223.135742188 960.622070312 220.23046875 959.115234375 c 2
 214.75390625 956.634765625 l 2
 214.708984375 956.55078125 214.666015625 956.466796875 214.62109375 956.383789062 c 0
 214.3046875 956.239257812 213.994140625 956.083984375 213.67578125 955.942382812 c 0
 199.438476562 949.735351562 184.990234375 943.874023438 169.783203125 940.861328125 c 0
 155.125 938.000976562 141.521484375 936.822265625 126.755859375 939.969726562 c 0
 115.197265625 942.791992188 103.995117188 947.00390625 93.96484375 953.811523438 c 0
 87.9326171875 958.390625 82.662109375 963.728515625 78.662109375 970.38671875 c 1xf4
584.556640625 917.2265625 m 0
 584.581054688 917.224609375 584.602539062 917.21875 584.626953125 917.215820312 c 2
 583.349609375 916.407226562 l 2
 583.274414062 917.141601562 584.005859375 917.192382812 584.556640625 917.2265625 c 0
EndSplineSet
EndChar

StartChar: Capital Z
Encoding: 90 90 25
Width: 412
GlyphClass: 2
Flags: MW
HStem: 47.3145 13.3145 307.588 12.8184 606.227 14.8457
VStem: 551.561 21.2422
LayerCount: 2
Fore
SplineSet
349.923828125 981.890625 m 0
 340.358398438 981.935546875 330.776367188 981.280273438 321.259765625 980.041015625 c 0
 305.837890625 977.229492188 302.63671875 977.09375 287.625 972.552734375 c 0
 257.936523438 963.571289062 231.022460938 948.547851562 204.650390625 933.23828125 c 0
 182.692382812 919.353515625 161.3828125 904.545898438 141.869140625 887.732421875 c 0
 132.216796875 879.12109375 122.47265625 870.509765625 113.841796875 860.984375 c 0
 109.813476562 856.087890625 105.951171875 851.094726562 102.439453125 845.857421875 c 2
 129.5546875 857.0703125 l 2
 132.704101562 862.2734375 136.69140625 866.927734375 140.517578125 871.6953125 c 0
 149.087890625 880.723632812 158.274414062 889.236328125 167.5703125 897.609375 c 0
 186.642578125 914.1015625 207.475585938 928.618164062 229.017578125 942.1484375 c 0
 233.666015625 944.771484375 238.143554688 947.676757812 242.9609375 950.017578125 c 0
 245.567382812 951.284179688 232.83203125 944.696289062 235.67578125 945.384765625 c 0
 241.182617188 946.71875 245.946289062 949.965820312 251.1953125 952.01171875 c 0
 256.493164062 954.076171875 261.859375 956.00390625 267.30078125 957.7109375 c 0
 282.302734375 962.416992188 285.2578125 962.533203125 300.673828125 965.49609375 c 0
 322.100585938 968.498046875 343.926757812 968.438476562 365.12890625 964.0078125 c 0
 378.063476562 961.3046875 381.506835938 959.624023438 393.751953125 955.27734375 c 0
 411.685546875 947.772460938 427.928710938 937.331054688 442.2109375 924.765625 c 0
 450.970703125 917.059570312 454.129882812 913.295898438 462.05078125 904.869140625 c 0
 476.240234375 887.858398438 488.534179688 869.129882812 494.8203125 848.216796875 c 0
 496.020507812 844.223632812 496.767578125 840.124023438 497.740234375 836.078125 c 0
 500.7734375 818.825195312 500.366210938 801.208007812 496.701171875 784.0625 c 0
 494.174804688 772.2421875 492.118164062 767.350585938 488.1796875 755.8046875 c 0
 480.3359375 735.90234375 470.333984375 716.668945312 457.8203125 698.939453125 c 0
 450.193359375 688.1328125 446.048828125 683.702148438 437.462890625 673.587890625 c 0
 426.635742188 661.635742188 414.256835938 651.059570312 400.60546875 641.97265625 c 0
 397.983398438 640.227539062 395.26953125 638.609375 392.55078125 636.994140625 c 0
 387.095703125 634.879882812 381.990234375 632.04296875 376.703125 629.580078125 c 0
 364.99609375 624.556640625 353.209960938 619.703125 341.388671875 614.919921875 c 0
 326.450195312 611.814453125 311.58203125 608.217773438 297.541015625 602.431640625 c 0
 284.509765625 596.654296875 271.37890625 590.458984375 259.6875 582.4921875 c 0
 258.870117188 582.189453125 259.184570312 582.3046875 258.177734375 581.931640625 c 2
 236.8828125 566.3046875 l 1
 252.53515625 572.213867188 244.453125 569.07421875 261.1171875 575.7578125 c 0
 280.491210938 583.750976562 299.970703125 591.513671875 319.408203125 599.365234375 c 0
 321.295898438 599.790039062 323.184570312 600.208007812 325.072265625 600.619140625 c 0
 346.35546875 604.5234375 368.103515625 607.044921875 389.833984375 606.2265625 c 0
 394.369140625 606.055664062 398.88671875 605.602539062 403.412109375 605.291015625 c 0
 421.499023438 603.370117188 439.205078125 598.768554688 455.109375 590.349609375 c 0
 466.0234375 584.572265625 469.125 581.604492188 478.919921875 574.22265625 c 0
 500.104492188 556.151367188 516.639648438 533.76171875 528.626953125 509.47265625 c 0
 531.294921875 504.068359375 533.48828125 498.470703125 535.91796875 492.970703125 c 0
 548.927734375 460.353515625 554.614257812 425.576171875 553.416015625 390.802734375 c 0
 553.142578125 382.859375 552.1796875 374.952148438 551.560546875 367.025390625 c 0
 546.016601562 322.334960938 531.670898438 279.052734375 511.79296875 238.154296875 c 0
 507.46484375 229.249023438 502.603515625 220.577148438 498.0078125 211.7890625 c 0
 478.990234375 178.251953125 455.985351562 146.42578125 426.43359375 120.119140625 c 0
 407.532226562 103.29296875 402.015625 100.881835938 380.72265625 87.162109375 c 0
 379.172851562 86.5546875 377.623046875 85.9462890625 376.072265625 85.33984375 c 0
 367.756835938 82.0859375 359.602539062 78.4443359375 351.123046875 75.580078125 c 0
 327.159179688 67.4853515625 302.120117188 63.0517578125 276.740234375 61.35546875 c 0
 268.811523438 60.8251953125 260.849609375 60.87109375 252.904296875 60.62890625 c 0
 217.771484375 60.9111328125 182.7109375 65.5341796875 148.623046875 73.41796875 c 0
 143.197265625 74.6728515625 137.83984375 76.1767578125 132.447265625 77.556640625 c 0
 120.008789062 81.138671875 107.569335938 84.9541015625 95.90625 90.423828125 c 0
 91.357421875 92.5576171875 86.0830078125 95.2421875 82.435546875 98.740234375 c 0
 81.1396484375 99.984375 80.29296875 101.576171875 79.220703125 102.994140625 c 0
 78.9189453125 104.430664062 78.2626953125 105.83984375 78.314453125 107.302734375 c 0
 78.54296875 113.717773438 84.6943359375 119.706054688 89.0078125 123.947265625 c 0
 95.45703125 130.286132812 101.9765625 135.376953125 109.025390625 141.203125 c 0
 144.583984375 169.62109375 181.177734375 196.858398438 218.853515625 222.78515625 c 0
 237.348632812 234.430664062 246.489257812 240.641601562 265.94921875 251.0390625 c 0
 267.763671875 252.0078125 269.858398438 252.427734375 271.7578125 253.240234375 c 0
 280.700195312 257.063476562 289.467773438 261.23828125 298.466796875 264.943359375 c 0
 322.584960938 274.872070312 329.20703125 276.640625 354.025390625 284.984375 c 0
 382.448242188 294.284179688 411.752929688 300.818359375 440.94140625 307.587890625 c 1
 458.916015625 320.40625 l 1
 429.716796875 313.700195312 400.388671875 307.267578125 371.947265625 298.03515625 c 0
 346.865234375 289.704101562 340.723632812 288.12109375 316.337890625 278.20703125 c 0
 274.298828125 261.115234375 234.689453125 239.112304688 197.080078125 214.724609375 c 0
 158.676757812 188.286132812 121.328125 160.5703125 84.732421875 131.984375 c 0
 77.595703125 126.170898438 70.025390625 120.365234375 63.548828125 113.85546875 c 0
 58.484375 108.763671875 52.4404296875 102.110351562 53.041015625 94.552734375 c 0
 53.18359375 92.7705078125 54.125 91.1240234375 54.666015625 89.41015625 c 0
 55.9736328125 87.8447265625 57.0498046875 86.0830078125 58.587890625 84.712890625 c 0
 62.6259765625 81.1181640625 68.2509765625 78.4677734375 73.197265625 76.326171875 c 0
 85.3779296875 71.0537109375 98.2646484375 67.3857421875 111.12109375 63.87890625 c 0
 116.646484375 62.5400390625 122.139648438 61.0791015625 127.697265625 59.86328125 c 0
 162.314453125 52.291015625 197.827148438 47.6953125 233.39453125 47.314453125 c 0
 241.420898438 47.541015625 249.461914062 47.48046875 257.47265625 47.99609375 c 0
 273.762695312 49.044921875 291.447265625 51.33203125 307.3046875 54.96875 c 0
 341.618164062 62.8388671875 372.47265625 77.1591796875 402.173828125 95.041015625 c 0
 423.271484375 108.9140625 428.748046875 111.376953125 447.4609375 128.318359375 c 0
 476.762695312 154.84375 499.454101562 186.827148438 518.3515625 220.400390625 c 0
 522.951171875 229.232421875 527.801757812 237.954101562 532.1484375 246.896484375 c 0
 552.227539062 288.197265625 567.081054688 331.795898438 572.802734375 376.9375 c 0
 573.463867188 384.952148438 574.467773438 392.948242188 574.783203125 400.98046875 c 0
 576.165039062 436.142578125 570.881835938 471.404296875 558.015625 504.5078125 c 0
 555.587890625 510.081054688 553.385742188 515.745117188 550.732421875 521.228515625 c 0
 538.809570312 545.880859375 522.362304688 568.688476562 501.2265625 587.26171875 c 0
 491.438476562 594.853515625 488.243164062 597.966796875 477.30859375 603.9765625 c 0
 461.322265625 612.763671875 443.455078125 617.676757812 425.115234375 619.76171875 c 0
 412.969726562 620.703125 409.895507812 621.211914062 397.6875 621.072265625 c 0
 386.958984375 620.94921875 376.25 620.092773438 365.607421875 618.779296875 c 1
 401.500976562 635.495117188 435.302734375 653.793945312 461.25390625 683.095703125 c 0
 470.05078125 693.633789062 473.615234375 697.426757812 481.404296875 708.6796875 c 0
 493.856445312 726.66796875 503.875 746.083984375 511.759765625 766.173828125 c 0
 515.7578125 777.934570312 517.826171875 782.850585938 520.376953125 794.8984375 c 0
 524.078125 812.374023438 524.514648438 830.330078125 521.275390625 847.89453125 c 0
 520.252929688 852.013671875 519.45703125 856.189453125 518.205078125 860.25390625 c 0
 511.682617188 881.440429688 499.081054688 900.354492188 484.6875 917.62109375 c 0
 476.66796875 926.169921875 473.506835938 929.942382812 464.646484375 937.77734375 c 0
 450.184570312 950.567382812 433.775390625 961.250976562 415.6328125 969 c 0
 403.276367188 973.418945312 399.59375 975.184570312 386.5625 978.005859375 c 0
 374.495117188 980.618164062 362.223632812 981.833007812 349.923828125 981.890625 c 0
290.66796875 594.638671875 m 0
 290.487304688 594.5390625 290.40234375 594.495117188 290.22265625 594.396484375 c 0
 290.172851562 594.375976562 290.123046875 594.356445312 290.072265625 594.3359375 c 1
 290.45703125 594.536132812 291.057617188 594.852539062 290.66796875 594.638671875 c 0
EndSplineSet
EndChar

StartChar: Capital W
Encoding: 87 87 26
Width: 440
GlyphClass: 2
Flags: MW
VStem: 254.646 20.5312<231.365 243.059> 428.174 22.209<264.262 277>
LayerCount: 2
Fore
SplineSet
624.265625 934.318359375 m 2
 598.873046875 922.703125 l 1
 575.311523438 895.419921875 556.26171875 863.904296875 536.330078125 833.4296875 c 0
 507.798828125 787.255859375 480.908203125 739.861328125 456.78515625 690.6953125 c 0
 440.490234375 658.065429688 423.940429688 625.533203125 409.3046875 591.9453125 c 0
 406.904296875 585.94140625 404.497070312 579.883789062 402.353515625 573.7265625 c 1
 398.073242188 592.456054688 393.522460938 611.111328125 388.6328125 629.671875 c 0
 381.25 657.100585938 379.114257812 666.05859375 370.818359375 692.90625 c 0
 359.41015625 729.825195312 346.389648438 766.114257812 332.53515625 801.990234375 c 0
 318.540039062 836.735351562 304.377929688 871.8046875 284.078125 902.755859375 c 0
 276.5390625 913.521484375 268.822265625 924.318359375 259.146484375 932.884765625 c 1
 234.236328125 915.2890625 l 1
 244.552734375 907.942382812 252.509765625 897.333984375 260.365234375 887.1015625 c 0
 281.73046875 857.31640625 296.665039062 822.896484375 311.224609375 788.712890625 c 0
 325.6484375 753.26171875 338.932617188 717.21875 350.59765625 680.544921875 c 0
 358.833984375 654.649414062 361.48046875 644.166015625 368.830078125 617.724609375 c 0
 387.498046875 549.319335938 400.97265625 479.40625 412.404296875 409.1484375 c 0
 420.247070312 361.217773438 425.37890625 312.84765625 428.173828125 264.26171875 c 1
 450.3828125 277 l 1
 445.916992188 325.125 439.833007812 373.041015625 431.98046875 420.64453125 c 0
 424.517578125 465.594726562 416.2734375 510.401367188 406.576171875 554.82421875 c 1
 422.439453125 563.740234375 l 1
 424.099609375 578.041992188 429.202148438 591.403320312 434.240234375 604.576171875 c 0
 448.115234375 637.641601562 463.814453125 669.734375 479.3671875 701.865234375 c 0
 502.768554688 751.118164062 529.595703125 798.205078125 558.197265625 843.947265625 c 0
 576.997070312 871.848632812 594.801757812 900.983398438 616.66015625 926.185546875 c 0
 619.1015625 929 621.73046875 931.607421875 624.265625 934.318359375 c 2
78.904296875 913.380859375 m 1
 54 895.60546875 l 1
 64.0263671875 890.163085938 73.05078125 882.915039062 81.87109375 875.419921875 c 0
 99.9521484375 859.209960938 115.291015625 839.665039062 128.27734375 818.37109375 c 0
 131.9453125 812.35546875 135.299804688 806.11328125 138.810546875 799.984375 c 0
 158.794921875 762.34375 175.099609375 722.377929688 188.216796875 681.2421875 c 0
 191.216796875 671.833984375 193.889648438 662.303710938 196.7265625 652.833984375 c 0
 215.509765625 586.078125 226.563476562 517.139648438 236.59765625 448.25390625 c 0
 246.536132812 376.40234375 251.846679688 303.940429688 254.646484375 231.365234375 c 1
 275.177734375 243.05859375 l 1
 270.909179688 315.399414062 265.184570312 387.655273438 255.7265625 459.423828125 c 0
 252.647460938 481.505859375 249.447265625 503.588867188 245.9375 525.609375 c 1
 254.11328125 530.431640625 l 1
 253.375 541.631835938 256.186523438 552.690429688 258.67578125 563.443359375 c 0
 264.903320312 588.017578125 275.265625 610.822265625 286.365234375 633.076171875 c 0
 297.853515625 654.33203125 311.434570312 674.29296875 327.2734375 691.857421875 c 0
 330.205078125 695.108398438 333.30859375 698.168945312 336.326171875 701.32421875 c 2
 311.38671875 689.990234375 l 2
 308.421875 686.797851562 305.373046875 683.698242188 302.4921875 680.4140625 c 0
 286.826171875 662.5546875 273.391601562 642.388671875 261.9453125 621.017578125 c 0
 253.310546875 603.71484375 245.1328125 586.081054688 238.783203125 567.623046875 c 1
 232.80078125 600.473632812 225.842773438 633.095703125 217.220703125 665.263671875 c 0
 214.459960938 674.818359375 211.87109375 684.434570312 208.939453125 693.927734375 c 0
 196.125 735.423828125 179.935546875 775.659179688 160.58984375 813.947265625 c 0
 157.189453125 820.2109375 153.94140625 826.576171875 150.388671875 832.736328125 c 0
 137.838867188 854.49609375 123.0625 874.711914062 105.46875 891.759765625 c 0
 97.025390625 899.57421875 88.3505859375 907.073242188 78.904296875 913.380859375 c 1
EndSplineSet
EndChar
